<svg width="181" height="48" viewBox="0 0 181 48" fill="none" xmlns="http://www.w3.org/2000/svg">
<circle cx="45.2222" cy="42.6666" r="5.22222" fill="#0088E7"/>
<circle cx="76.6666" cy="42.6666" r="5.22222" fill="#0088E7"/>
<circle cx="108.111" cy="42.6666" r="5.22222" fill="#0088E7"/>
<circle cx="139.556" cy="42.6666" r="5.22222" fill="#0088E7"/>
<circle cx="171" cy="42.6666" r="5.22222" fill="#0088E7"/>
<g clip-path="url(#clip0_594_525)">
<path d="M40.4962 15.8463V26.8801H38.0312V15.8463H35.0967V13.3813H43.4307V15.8463" fill="#282828"/>
<path d="M50.943 18.0765C50.004 17.1374 48.5954 16.5505 47.1869 16.5505C45.7783 16.5505 44.4871 17.1374 43.4307 18.0765C42.4917 19.0155 41.9048 20.4241 41.9048 21.8326C41.9048 23.2412 42.4917 24.5324 43.4307 25.5888C44.3698 26.5278 45.7783 27.1147 47.1869 27.1147C48.5954 27.1147 49.8866 26.5278 50.943 25.5888C51.8821 24.6498 52.469 23.2412 52.469 21.8326C52.469 20.4241 51.9995 19.1329 50.943 18.0765ZM50.4735 22.4195C50.3561 23.0064 50.004 23.5933 49.5345 24.0629C48.9476 24.6498 48.1259 25.0019 47.1869 25.0019C46.9521 25.0019 46.7174 25.0019 46.4826 24.8845C45.8957 24.7671 45.3088 24.415 44.8393 23.9455C44.2524 23.3586 43.9002 22.5369 43.9002 21.5979C43.9002 21.3631 43.9002 21.1284 44.0176 20.8936C44.135 20.3067 44.4871 19.7198 44.9567 19.2503C45.5436 18.6634 46.3652 18.3112 47.3043 18.3112C47.539 18.3112 47.7738 18.3112 48.0085 18.4286C48.5954 18.546 49.1823 18.8981 49.6519 19.3677C50.2388 19.9546 50.5909 20.7762 50.5909 21.7153C50.4735 22.0674 50.4735 22.3022 50.4735 22.4195Z" fill="#282828"/>
<path d="M57.9855 21.5979L62.7981 26.8801H59.5115L55.8727 22.8891V26.8801H53.4077V13.3813H55.8727V20.3068L58.9246 16.7854H62.2112" fill="#282828"/>
<path d="M62.916 23.7108V16.7854H65.381V23.7108C65.381 24.063 65.4984 24.4151 65.7331 24.5325L65.9679 24.7672C66.32 25.002 66.7896 25.1194 67.2591 25.1194C67.7286 25.1194 68.1981 25.002 68.5503 24.7672C68.785 24.6499 69.0198 24.2977 69.1372 24.063V23.7108V16.7854H71.6021V26.8801H69.1372V25.941C68.9024 26.2932 68.4329 26.6453 68.0807 26.7627C67.6112 26.9975 67.1417 27.1148 66.6722 27.1148C66.4374 27.1148 66.0853 27.1148 65.8505 26.9975C65.6158 26.9975 65.381 26.8801 65.0289 26.7627C64.7941 26.6453 64.5593 26.5279 64.3246 26.4106C64.0898 26.2932 63.9724 26.1758 63.7377 25.941C63.6203 25.8237 63.3855 25.5889 63.2682 25.4715C63.1508 25.2368 63.0334 25.1194 62.916 24.8846C62.916 24.5325 62.916 24.1803 62.916 23.7108Z" fill="#282828"/>
<path d="M160.459 19.9546V26.88H157.994V19.9546C157.994 19.6024 157.876 19.2503 157.641 19.1329L157.407 18.8981C157.055 18.6634 156.585 18.546 156.116 18.546C155.646 18.546 155.176 18.6634 154.824 18.8981C154.59 19.0155 154.355 19.3677 154.237 19.6024V19.9546V26.88H151.772V16.7853H154.237V17.7243C154.472 17.3722 154.942 17.0201 155.294 16.9027C155.763 16.6679 156.233 16.5505 156.702 16.5505C157.055 16.5505 157.289 16.5505 157.524 16.6679C157.759 16.6679 157.994 16.7853 158.346 16.9027C158.58 17.0201 158.815 17.1374 159.05 17.2548C159.285 17.3722 159.402 17.4896 159.637 17.7243C159.754 17.8417 159.989 18.0765 160.106 18.1939C160.224 18.4286 160.341 18.546 160.459 18.7808C160.341 19.0155 160.459 19.485 160.459 19.9546Z" fill="#282828"/>
<path d="M77.8228 22.7718L80.6399 16.7854H83.3397L77.0012 30.6362H74.3014L76.5316 25.8237L72.4233 16.7854H75.1231" fill="#282828"/>
<path d="M90.7348 16.7853V17.7243C90.5 17.607 90.2652 17.3722 90.0305 17.2548C89.7957 17.1374 89.561 17.0201 89.2088 16.9027C88.6219 16.6679 88.035 16.5505 87.4481 16.5505C86.0396 16.5505 84.7484 17.1374 83.692 18.0765C82.7529 19.0155 82.166 20.4241 82.166 21.8326C82.166 23.2412 82.7529 24.5324 83.692 25.5888C84.631 26.5278 86.0396 27.1147 87.4481 27.1147C88.035 27.1147 88.6219 26.9974 89.2088 26.7626C89.4436 26.6452 89.7957 26.5278 90.0305 26.4105C90.2652 26.2931 90.5 26.0583 90.7348 25.9409V26.7626H93.1997V16.6679L90.7348 16.7853ZM90.7348 22.4195C90.6174 23.0064 90.2652 23.5933 89.7957 24.0629C89.2088 24.6498 88.3872 25.0019 87.4481 25.0019C87.2134 25.0019 86.9786 25.0019 86.7438 24.8845C86.1569 24.7671 85.57 24.415 85.1005 23.9455C84.5136 23.3586 84.1615 22.5369 84.1615 21.5979C84.1615 21.3631 84.1615 21.1284 84.2789 20.8936C84.3962 20.3067 84.7484 19.7198 85.2179 19.2503C85.8048 18.6634 86.6265 18.3112 87.5655 18.3112C87.8003 18.3112 88.035 18.3112 88.2698 18.4286C88.8567 18.546 89.4436 18.8981 89.9131 19.3677C90.5 19.9546 90.8521 20.7762 90.8521 21.7153C90.7348 22.0674 90.7348 22.3022 90.7348 22.4195Z" fill="#282828"/>
<path d="M109.046 19.9546C109.046 19.485 108.929 19.0155 108.811 18.6634C108.694 18.4286 108.577 18.3112 108.459 18.0765C108.342 17.8417 108.225 17.7243 107.99 17.607C107.872 17.4896 107.638 17.2548 107.403 17.2548C107.168 17.1374 106.933 17.0201 106.699 16.9027C106.464 16.7853 106.229 16.7853 105.877 16.6679C105.642 16.6679 105.29 16.5505 105.055 16.5505C104.468 16.5505 103.764 16.7853 103.295 17.1374C102.942 17.4896 102.59 17.8417 102.356 18.3112C102.003 17.7243 101.534 17.3722 101.064 17.0201C100.36 16.6679 99.6558 16.5505 98.9515 16.5505C98.482 16.5505 98.1299 16.6679 97.6604 16.9027C97.4256 17.0201 97.3082 17.1374 97.0735 17.2548C96.9561 17.3722 96.8387 17.607 96.7213 17.7243V16.7853H94.2563V26.88H96.7213V19.9546V19.7198C96.8387 19.3677 96.9561 19.1329 97.3082 18.8981C97.6604 18.6634 98.1299 18.546 98.5994 18.546C99.0689 18.546 99.5384 18.6634 99.8906 18.8981L100.008 19.0155C100.243 19.2503 100.36 19.6024 100.36 19.9546V26.88H102.825V19.9546V19.7198C102.942 19.3677 103.06 19.1329 103.412 18.8981C103.764 18.6634 104.234 18.546 104.703 18.546C105.173 18.546 105.642 18.6634 105.994 18.8981L106.229 19.0155C106.464 19.2503 106.581 19.6024 106.581 19.9546V26.88H109.046" fill="#282828"/>
<path d="M118.202 16.7853V17.7243C117.967 17.607 117.732 17.3722 117.497 17.2548C117.263 17.1374 117.028 17.0201 116.676 16.9027C116.089 16.6679 115.502 16.5505 114.915 16.5505C113.506 16.5505 112.215 17.1374 111.159 18.0765C110.22 19.0155 109.633 20.4241 109.633 21.8326C109.633 23.2412 110.22 24.5324 111.159 25.5888C112.098 26.5278 113.506 27.1147 114.915 27.1147C115.502 27.1147 116.089 26.9974 116.676 26.7626C116.91 26.6452 117.263 26.5278 117.497 26.4105C117.732 26.2931 117.967 26.0583 118.202 25.9409V26.7626H120.667V16.6679L118.202 16.7853ZM118.202 22.4195C118.084 23.0064 117.732 23.5933 117.263 24.0629C116.676 24.6498 115.854 25.0019 114.915 25.0019C114.68 25.0019 114.445 25.0019 114.211 24.8845C113.624 24.7671 113.037 24.415 112.567 23.9455C111.98 23.3586 111.628 22.5369 111.628 21.5979C111.628 21.3631 111.628 21.1284 111.746 20.8936C111.863 20.3067 112.215 19.7198 112.685 19.2503C113.272 18.6634 114.093 18.3112 115.032 18.3112C115.267 18.3112 115.502 18.3112 115.737 18.4286C116.323 18.546 116.91 18.8981 117.38 19.3677C117.967 19.9546 118.319 20.7762 118.319 21.7153C118.202 22.0674 118.202 22.3022 118.202 22.4195Z" fill="#282828"/>
<path d="M175.014 16.7853V17.7243C174.779 17.607 174.544 17.3722 174.309 17.2548C174.075 17.1374 173.84 17.0201 173.488 16.9027C172.901 16.6679 172.314 16.5505 171.727 16.5505C170.318 16.5505 169.027 17.1374 167.971 18.0765C167.032 19.0155 166.445 20.4241 166.445 21.8326C166.445 23.2412 167.032 24.5324 167.971 25.5888C168.91 26.5278 170.318 27.1147 171.727 27.1147C172.314 27.1147 172.901 26.9974 173.488 26.7626C173.722 26.6452 174.075 26.5278 174.309 26.4105C174.544 26.2931 174.779 26.0583 175.014 25.9409V26.7626H177.479V16.6679L175.014 16.7853ZM174.896 22.4195C174.779 23.0064 174.427 23.5933 173.957 24.0629C173.37 24.6498 172.549 25.0019 171.61 25.0019C171.375 25.0019 171.14 25.0019 170.905 24.8845C170.318 24.7671 169.731 24.415 169.262 23.9455C168.675 23.3586 168.323 22.5369 168.323 21.5979C168.323 21.3631 168.323 21.1284 168.44 20.8936C168.558 20.3067 168.91 19.7198 169.379 19.2503C169.966 18.6634 170.788 18.3112 171.727 18.3112C171.962 18.3112 172.196 18.3112 172.431 18.4286C173.018 18.546 173.605 18.8981 174.075 19.3677C174.661 19.9546 175.014 20.7762 175.014 21.7153C175.014 22.0674 175.014 22.3022 174.896 22.4195Z" fill="#282828"/>
<path d="M166.328 16.5506H164.802V13.3813H162.337V16.5506H160.693V18.6634H162.337V26.8801H164.802V18.6634H166.68V16.5506" fill="#282828"/>
<path d="M180.296 9.50781H178.535V26.8801H181V9.50781" fill="#282828"/>
<path d="M148.368 23.1238C148.016 23.9455 147.194 24.8845 145.551 25.0019C144.26 25.0019 142.969 23.9455 142.617 22.7717H150.833V22.3022C150.951 21.1284 150.598 20.0719 150.012 19.1329C149.307 17.9591 147.781 16.5505 145.551 16.5505C142.617 16.5505 140.269 19.0155 140.269 21.8326C140.269 23.2412 140.856 24.5324 141.795 25.5888C142.734 26.5278 144.143 27.1147 145.551 27.1147C147.547 27.1147 149.307 25.9409 150.246 24.1802L148.368 23.1238ZM145.669 18.4286C146.725 18.4286 148.016 19.1329 148.603 20.5415H142.851C143.204 19.1329 144.495 18.4286 145.669 18.4286Z" fill="#282828"/>
<path d="M136.631 14.4378C135.574 13.7335 134.048 13.3813 132.287 13.3813H128.179V26.7627H132.287C133.931 26.7627 135.574 26.4105 136.631 25.7063C139.565 23.8282 139.682 20.7763 139.682 20.1894C139.8 18.3113 138.978 15.8463 136.631 14.4378ZM135.692 23.476C134.4 24.4151 132.874 24.4151 131.818 24.4151H130.762V15.7289H131.818C133.579 15.7289 134.635 15.9637 135.574 16.5506C136.748 17.3723 137.335 18.5461 137.335 19.9546C137.335 21.4806 136.865 22.537 135.692 23.476Z" fill="#282828"/>
<path d="M29.3454 19.1329C29.3454 23.0064 26.1761 26.1757 22.3026 26.1757C18.429 26.1757 15.2598 23.0064 15.2598 19.1329C15.2598 15.2593 18.429 12.0901 22.3026 12.0901C26.1761 12.0901 29.3454 15.2593 29.3454 19.1329ZM19.8376 22.6543C21.7157 23.9455 24.4154 23.4759 25.7066 21.5979C26.9978 19.7198 26.5282 17.02 24.6502 15.7289L19.8376 22.6543Z" fill="#282828"/>
<path d="M13.1466 19.1329C13.1466 14.0856 17.2549 9.9773 22.1848 9.9773C25.3541 9.9773 28.1712 11.6206 29.8145 14.203C29.4624 6.33852 23.0065 0 14.9073 0C12.2075 0 9.62516 0.70428 7.39494 1.99546C11.0337 1.7607 14.3204 2.3476 17.3722 3.99092C12.2075 3.75616 7.16018 4.6952 2.81712 6.22114C1.05642 8.68612 0 11.738 0 14.9073C0 23.1239 6.69066 29.8145 14.9073 29.8145C17.3722 29.8145 19.8372 29.2276 21.8327 28.0538C17.0201 28.0538 13.1466 24.0629 13.1466 19.1329Z" fill="#0088E7"/>
</g>
<defs>
<clipPath id="clip0_594_525">
<rect width="181" height="30.6362" fill="white"/>
</clipPath>
</defs>
</svg>
