<svg width="24" height="24" viewBox="0 0 24 24"  xmlns="http://www.w3.org/2000/svg">
<g clip-path="url(#clip0_810_1297)">
<path fill-rule="evenodd" clip-rule="evenodd" d="M23.748 0.251051C24.0827 0.585786 24.0827 1.1285 23.748 1.46323L1.46226 23.7489C1.12752 24.0837 0.58481 24.0837 0.250075 23.7489C-0.0846604 23.4142 -0.0846604 22.8715 0.250075 22.5368L22.5358 0.251051C22.8705 -0.0836838 23.4132 -0.0836838 23.748 0.251051Z" />
<path fill-rule="evenodd" clip-rule="evenodd" d="M0.250075 0.251051C0.58481 -0.0836838 1.12752 -0.0836838 1.46226 0.251051L23.748 22.5368C24.0827 22.8715 24.0827 23.4142 23.748 23.7489C23.4132 24.0837 22.8705 24.0837 22.5358 23.7489L0.250075 1.46323C-0.0846604 1.1285 -0.0846604 0.585786 0.250075 0.251051Z" />
</g>
<defs>
<clipPath id="clip0_810_1297">
<rect width="24" height="24"  transform="translate(-0.000976562)"/>
</clipPath>
</defs>
</svg>
