<svg width="40" height="40" viewBox="0 0 40 40"  xmlns="http://www.w3.org/2000/svg">
<path fill-rule="evenodd" clip-rule="evenodd" d="M19.9999 39.4529C30.7435 39.4529 39.4529 30.7435 39.4529 19.9999C39.4529 9.25628 30.7435 0.546875 19.9999 0.546875C9.25628 0.546875 0.546875 9.25628 0.546875 19.9999C0.546875 29.5878 7.48333 37.5556 16.6118 39.1589V25.949H11.6628V20.4584H16.6118V16.2737C16.6118 11.514 19.5202 8.88374 23.9742 8.88374C26.106 8.88374 28.3368 9.25473 28.3368 9.25473V13.9291H25.8776C23.4564 13.9291 22.7027 15.3945 22.7027 16.897V20.4584H28.1084L27.2443 25.949H22.7027V39.2228C21.762 39.3668 20.8008 39.4443 19.8223 39.4521C19.8814 39.4526 19.9406 39.4529 19.9999 39.4529Z"/>
</svg>
