<svg width="40" height="40" viewBox="0 0 40 40" xmlns="http://www.w3.org/2000/svg">
<path d="M20.0291 2.46289C15.2742 2.46289 14.6779 2.48304 12.8105 2.56825C10.947 2.65324 9.67426 2.94923 8.56059 3.38201C7.40928 3.82944 6.43291 4.4281 5.45956 5.40141C4.48622 6.3748 3.88757 7.35119 3.44013 8.5025C3.00736 9.61614 2.71138 10.8889 2.62633 12.7524C2.54115 14.6198 2.521 15.2161 2.521 19.971C2.521 24.7259 2.54115 25.3221 2.62633 27.1895C2.71138 29.053 3.00736 30.3258 3.44013 31.4394C3.88757 32.5907 4.48622 33.5671 5.45956 34.5405C6.43291 35.5138 7.40928 36.1125 8.56059 36.5599C9.67426 36.9927 10.947 37.2887 12.8105 37.3737C14.6779 37.4589 15.2742 37.479 20.0291 37.479C24.784 37.479 25.3802 37.4589 27.2476 37.3737C29.1111 37.2887 30.3839 36.9927 31.4975 36.5599C32.6488 36.1125 33.6252 35.5138 34.5986 34.5405C35.5719 33.5671 36.1706 32.5907 36.618 31.4394C37.0508 30.3258 37.3468 29.053 37.4318 27.1895C37.517 25.3221 37.5371 24.7259 37.5371 19.971C37.5371 15.2161 37.517 14.6198 37.4318 12.7524C37.3468 10.8889 37.0508 9.61614 36.618 8.5025C36.1706 7.35119 35.5719 6.3748 34.5986 5.40141C33.6252 4.4281 32.6488 3.82944 31.4975 3.38201C30.3839 2.94923 29.1111 2.65324 27.2476 2.56825C25.3802 2.48304 24.784 2.46289 20.0291 2.46289ZM20.0291 5.61748C24.7039 5.61748 25.2577 5.63535 27.1038 5.71959C28.8108 5.79743 29.7379 6.08265 30.3548 6.32242C31.1721 6.64001 31.7553 7.01942 32.3679 7.63204C32.9806 8.24474 33.36 8.82797 33.6776 9.6452C33.9174 10.2621 34.2026 11.1892 34.2804 12.8962C34.3647 14.7423 34.3825 15.2961 34.3825 19.971C34.3825 24.6458 34.3647 25.1996 34.2804 27.0457C34.2026 28.7527 33.9174 29.6798 33.6776 30.2967C33.36 31.1139 32.9806 31.6972 32.3679 32.3098C31.7553 32.9225 31.1721 33.3019 30.3548 33.6195C29.7379 33.8593 28.8108 34.1445 27.1038 34.2223C25.258 34.3066 24.7043 34.3244 20.0291 34.3244C15.3539 34.3244 14.8003 34.3066 12.9543 34.2223C11.2473 34.1445 10.3202 33.8593 9.7033 33.6195C8.88607 33.3019 8.30285 32.9225 7.6902 32.3098C7.07756 31.6972 6.69812 31.1139 6.38053 30.2967C6.14075 29.6798 5.85557 28.7527 5.77768 27.0457C5.69344 25.1996 5.67559 24.6458 5.67559 19.971C5.67559 15.2961 5.69344 14.7423 5.77768 12.8962C5.85557 11.1892 6.14075 10.2621 6.38053 9.6452C6.69812 8.82797 7.07754 8.24474 7.69019 7.6321C8.30285 7.01942 8.88607 6.64001 9.7033 6.32242C10.3202 6.08265 11.2473 5.79743 12.9543 5.71959C14.8004 5.63535 15.3542 5.61748 20.0291 5.61748Z" fill="url(#paint0_radial_915_3739)"/>
<path d="M20.0291 2.46289C15.2742 2.46289 14.6779 2.48304 12.8105 2.56825C10.947 2.65324 9.67426 2.94923 8.56059 3.38201C7.40928 3.82944 6.43291 4.4281 5.45956 5.40141C4.48622 6.3748 3.88757 7.35119 3.44013 8.5025C3.00736 9.61614 2.71138 10.8889 2.62633 12.7524C2.54115 14.6198 2.521 15.2161 2.521 19.971C2.521 24.7259 2.54115 25.3221 2.62633 27.1895C2.71138 29.053 3.00736 30.3258 3.44013 31.4394C3.88757 32.5907 4.48622 33.5671 5.45956 34.5405C6.43291 35.5138 7.40928 36.1125 8.56059 36.5599C9.67426 36.9927 10.947 37.2887 12.8105 37.3737C14.6779 37.4589 15.2742 37.479 20.0291 37.479C24.784 37.479 25.3802 37.4589 27.2476 37.3737C29.1111 37.2887 30.3839 36.9927 31.4975 36.5599C32.6488 36.1125 33.6252 35.5138 34.5986 34.5405C35.5719 33.5671 36.1706 32.5907 36.618 31.4394C37.0508 30.3258 37.3468 29.053 37.4318 27.1895C37.517 25.3221 37.5371 24.7259 37.5371 19.971C37.5371 15.2161 37.517 14.6198 37.4318 12.7524C37.3468 10.8889 37.0508 9.61614 36.618 8.5025C36.1706 7.35119 35.5719 6.3748 34.5986 5.40141C33.6252 4.4281 32.6488 3.82944 31.4975 3.38201C30.3839 2.94923 29.1111 2.65324 27.2476 2.56825C25.3802 2.48304 24.784 2.46289 20.0291 2.46289ZM20.0291 5.61748C24.7039 5.61748 25.2577 5.63535 27.1038 5.71959C28.8108 5.79743 29.7379 6.08265 30.3548 6.32242C31.1721 6.64001 31.7553 7.01942 32.3679 7.63204C32.9806 8.24474 33.36 8.82797 33.6776 9.6452C33.9174 10.2621 34.2026 11.1892 34.2804 12.8962C34.3647 14.7423 34.3825 15.2961 34.3825 19.971C34.3825 24.6458 34.3647 25.1996 34.2804 27.0457C34.2026 28.7527 33.9174 29.6798 33.6776 30.2967C33.36 31.1139 32.9806 31.6972 32.3679 32.3098C31.7553 32.9225 31.1721 33.3019 30.3548 33.6195C29.7379 33.8593 28.8108 34.1445 27.1038 34.2223C25.258 34.3066 24.7043 34.3244 20.0291 34.3244C15.3539 34.3244 14.8003 34.3066 12.9543 34.2223C11.2473 34.1445 10.3202 33.8593 9.7033 33.6195C8.88607 33.3019 8.30285 32.9225 7.6902 32.3098C7.07756 31.6972 6.69812 31.1139 6.38053 30.2967C6.14075 29.6798 5.85557 28.7527 5.77768 27.0457C5.69344 25.1996 5.67559 24.6458 5.67559 19.971C5.67559 15.2961 5.69344 14.7423 5.77768 12.8962C5.85557 11.1892 6.14075 10.2621 6.38053 9.6452C6.69812 8.82797 7.07754 8.24474 7.69019 7.6321C8.30285 7.01942 8.88607 6.64001 9.7033 6.32242C10.3202 6.08265 11.2473 5.79743 12.9543 5.71959C14.8004 5.63535 15.3542 5.61748 20.0291 5.61748Z" fill="url(#paint1_radial_915_3739)"/>
<path d="M20.0291 2.46289C15.2742 2.46289 14.6779 2.48304 12.8105 2.56825C10.947 2.65324 9.67426 2.94923 8.56059 3.38201C7.40928 3.82944 6.43291 4.4281 5.45956 5.40141C4.48622 6.3748 3.88757 7.35119 3.44013 8.5025C3.00736 9.61614 2.71138 10.8889 2.62633 12.7524C2.54115 14.6198 2.521 15.2161 2.521 19.971C2.521 24.7259 2.54115 25.3221 2.62633 27.1895C2.71138 29.053 3.00736 30.3258 3.44013 31.4394C3.88757 32.5907 4.48622 33.5671 5.45956 34.5405C6.43291 35.5138 7.40928 36.1125 8.56059 36.5599C9.67426 36.9927 10.947 37.2887 12.8105 37.3737C14.6779 37.4589 15.2742 37.479 20.0291 37.479C24.784 37.479 25.3802 37.4589 27.2476 37.3737C29.1111 37.2887 30.3839 36.9927 31.4975 36.5599C32.6488 36.1125 33.6252 35.5138 34.5986 34.5405C35.5719 33.5671 36.1706 32.5907 36.618 31.4394C37.0508 30.3258 37.3468 29.053 37.4318 27.1895C37.517 25.3221 37.5371 24.7259 37.5371 19.971C37.5371 15.2161 37.517 14.6198 37.4318 12.7524C37.3468 10.8889 37.0508 9.61614 36.618 8.5025C36.1706 7.35119 35.5719 6.3748 34.5986 5.40141C33.6252 4.4281 32.6488 3.82944 31.4975 3.38201C30.3839 2.94923 29.1111 2.65324 27.2476 2.56825C25.3802 2.48304 24.784 2.46289 20.0291 2.46289ZM20.0291 5.61748C24.7039 5.61748 25.2577 5.63535 27.1038 5.71959C28.8108 5.79743 29.7379 6.08265 30.3548 6.32242C31.1721 6.64001 31.7553 7.01942 32.3679 7.63204C32.9806 8.24474 33.36 8.82797 33.6776 9.6452C33.9174 10.2621 34.2026 11.1892 34.2804 12.8962C34.3647 14.7423 34.3825 15.2961 34.3825 19.971C34.3825 24.6458 34.3647 25.1996 34.2804 27.0457C34.2026 28.7527 33.9174 29.6798 33.6776 30.2967C33.36 31.1139 32.9806 31.6972 32.3679 32.3098C31.7553 32.9225 31.1721 33.3019 30.3548 33.6195C29.7379 33.8593 28.8108 34.1445 27.1038 34.2223C25.258 34.3066 24.7043 34.3244 20.0291 34.3244C15.3539 34.3244 14.8003 34.3066 12.9543 34.2223C11.2473 34.1445 10.3202 33.8593 9.7033 33.6195C8.88607 33.3019 8.30285 32.9225 7.6902 32.3098C7.07756 31.6972 6.69812 31.1139 6.38053 30.2967C6.14075 29.6798 5.85557 28.7527 5.77768 27.0457C5.69344 25.1996 5.67559 24.6458 5.67559 19.971C5.67559 15.2961 5.69344 14.7423 5.77768 12.8962C5.85557 11.1892 6.14075 10.2621 6.38053 9.6452C6.69812 8.82797 7.07754 8.24474 7.69019 7.6321C8.30285 7.01942 8.88607 6.64001 9.7033 6.32242C10.3202 6.08265 11.2473 5.79743 12.9543 5.71959C14.8004 5.63535 15.3542 5.61748 20.0291 5.61748Z" fill="url(#paint2_radial_915_3739)"/>
<path d="M20.0292 25.8069C16.806 25.8069 14.1932 23.194 14.1932 19.9709C14.1932 16.7477 16.806 14.1348 20.0292 14.1348C23.2524 14.1348 25.8652 16.7477 25.8652 19.9709C25.8652 23.194 23.2524 25.8069 20.0292 25.8069ZM20.0292 10.9802C15.0638 10.9802 11.0386 15.0054 11.0386 19.9709C11.0386 24.9363 15.0638 28.9615 20.0292 28.9615C24.9946 28.9615 29.0198 24.9363 29.0198 19.9709C29.0198 15.0054 24.9946 10.9802 20.0292 10.9802Z" fill="url(#paint3_radial_915_3739)"/>
<path d="M20.0292 25.8069C16.806 25.8069 14.1932 23.194 14.1932 19.9709C14.1932 16.7477 16.806 14.1348 20.0292 14.1348C23.2524 14.1348 25.8652 16.7477 25.8652 19.9709C25.8652 23.194 23.2524 25.8069 20.0292 25.8069ZM20.0292 10.9802C15.0638 10.9802 11.0386 15.0054 11.0386 19.9709C11.0386 24.9363 15.0638 28.9615 20.0292 28.9615C24.9946 28.9615 29.0198 24.9363 29.0198 19.9709C29.0198 15.0054 24.9946 10.9802 20.0292 10.9802Z" fill="url(#paint4_radial_915_3739)"/>
<path d="M20.0292 25.8069C16.806 25.8069 14.1932 23.194 14.1932 19.9709C14.1932 16.7477 16.806 14.1348 20.0292 14.1348C23.2524 14.1348 25.8652 16.7477 25.8652 19.9709C25.8652 23.194 23.2524 25.8069 20.0292 25.8069ZM20.0292 10.9802C15.0638 10.9802 11.0386 15.0054 11.0386 19.9709C11.0386 24.9363 15.0638 28.9615 20.0292 28.9615C24.9946 28.9615 29.0198 24.9363 29.0198 19.9709C29.0198 15.0054 24.9946 10.9802 20.0292 10.9802Z" fill="url(#paint5_radial_915_3739)"/>
<path d="M31.4758 10.6252C31.4758 11.7855 30.5352 12.7261 29.3748 12.7261C28.2146 12.7261 27.2739 11.7855 27.2739 10.6252C27.2739 9.46482 28.2146 8.52417 29.3748 8.52417C30.5352 8.52417 31.4758 9.46482 31.4758 10.6252Z" fill="url(#paint6_radial_915_3739)"/>
<path d="M31.4758 10.6252C31.4758 11.7855 30.5352 12.7261 29.3748 12.7261C28.2146 12.7261 27.2739 11.7855 27.2739 10.6252C27.2739 9.46482 28.2146 8.52417 29.3748 8.52417C30.5352 8.52417 31.4758 9.46482 31.4758 10.6252Z" fill="url(#paint7_radial_915_3739)"/>
<path d="M31.4758 10.6252C31.4758 11.7855 30.5352 12.7261 29.3748 12.7261C28.2146 12.7261 27.2739 11.7855 27.2739 10.6252C27.2739 9.46482 28.2146 8.52417 29.3748 8.52417C30.5352 8.52417 31.4758 9.46482 31.4758 10.6252Z" fill="url(#paint8_radial_915_3739)"/>
<defs>
<radialGradient id="paint0_radial_915_3739" cx="0" cy="0" r="1" gradientUnits="userSpaceOnUse" gradientTransform="translate(15.0268 28.725) rotate(-55.3758) scale(31.9142)">
<stop stop-color="#B13589"/>
<stop offset="0.79309" stop-color="#C62F94"/>
<stop offset="1" stop-color="#8A3AC8"/>
</radialGradient>
<radialGradient id="paint1_radial_915_3739" cx="0" cy="0" r="1" gradientUnits="userSpaceOnUse" gradientTransform="translate(13.7762 38.7296) rotate(-65.1363) scale(28.2558)">
<stop stop-color="#E0E8B7"/>
<stop offset="0.444662" stop-color="#FB8A2E"/>
<stop offset="0.71474" stop-color="#E2425C"/>
<stop offset="1" stop-color="#E2425C" stop-opacity="0"/>
</radialGradient>
<radialGradient id="paint2_radial_915_3739" cx="0" cy="0" r="1" gradientUnits="userSpaceOnUse" gradientTransform="translate(0.645134 3.71347) rotate(-8.1301) scale(48.636 10.4027)">
<stop offset="0.156701" stop-color="#406ADC"/>
<stop offset="0.467799" stop-color="#6A45BE"/>
<stop offset="1" stop-color="#6A45BE" stop-opacity="0"/>
</radialGradient>
<radialGradient id="paint3_radial_915_3739" cx="0" cy="0" r="1" gradientUnits="userSpaceOnUse" gradientTransform="translate(15.0268 28.725) rotate(-55.3758) scale(31.9142)">
<stop stop-color="#B13589"/>
<stop offset="0.79309" stop-color="#C62F94"/>
<stop offset="1" stop-color="#8A3AC8"/>
</radialGradient>
<radialGradient id="paint4_radial_915_3739" cx="0" cy="0" r="1" gradientUnits="userSpaceOnUse" gradientTransform="translate(13.7762 38.7296) rotate(-65.1363) scale(28.2558)">
<stop stop-color="#E0E8B7"/>
<stop offset="0.444662" stop-color="#FB8A2E"/>
<stop offset="0.71474" stop-color="#E2425C"/>
<stop offset="1" stop-color="#E2425C" stop-opacity="0"/>
</radialGradient>
<radialGradient id="paint5_radial_915_3739" cx="0" cy="0" r="1" gradientUnits="userSpaceOnUse" gradientTransform="translate(0.645134 3.71347) rotate(-8.1301) scale(48.636 10.4027)">
<stop offset="0.156701" stop-color="#406ADC"/>
<stop offset="0.467799" stop-color="#6A45BE"/>
<stop offset="1" stop-color="#6A45BE" stop-opacity="0"/>
</radialGradient>
<radialGradient id="paint6_radial_915_3739" cx="0" cy="0" r="1" gradientUnits="userSpaceOnUse" gradientTransform="translate(15.0268 28.725) rotate(-55.3758) scale(31.9142)">
<stop stop-color="#B13589"/>
<stop offset="0.79309" stop-color="#C62F94"/>
<stop offset="1" stop-color="#8A3AC8"/>
</radialGradient>
<radialGradient id="paint7_radial_915_3739" cx="0" cy="0" r="1" gradientUnits="userSpaceOnUse" gradientTransform="translate(13.7762 38.7296) rotate(-65.1363) scale(28.2558)">
<stop stop-color="#E0E8B7"/>
<stop offset="0.444662" stop-color="#FB8A2E"/>
<stop offset="0.71474" stop-color="#E2425C"/>
<stop offset="1" stop-color="#E2425C" stop-opacity="0"/>
</radialGradient>
<radialGradient id="paint8_radial_915_3739" cx="0" cy="0" r="1" gradientUnits="userSpaceOnUse" gradientTransform="translate(0.645134 3.71347) rotate(-8.1301) scale(48.636 10.4027)">
<stop offset="0.156701" stop-color="#406ADC"/>
<stop offset="0.467799" stop-color="#6A45BE"/>
<stop offset="1" stop-color="#6A45BE" stop-opacity="0"/>
</radialGradient>
</defs>
</svg>
