<svg width="32" height="32" viewBox="0 0 32 32"  xmlns="http://www.w3.org/2000/svg">
<path fill-rule="evenodd" clip-rule="evenodd" d="M16.612 6.2571C16.9434 6.59514 16.938 7.13782 16.6 7.46922L6.13446 17.7291C5.79038 18.0735 5.51735 18.4822 5.33091 18.9319C5.14399 19.3828 5.04778 19.8662 5.04778 20.3543C5.04778 20.8424 5.14399 21.3257 5.33091 21.7766C5.51783 22.2275 5.79179 22.6372 6.13713 22.9821L9.01747 25.8625C9.36243 26.2078 9.77241 26.4821 10.2233 26.669C10.6742 26.856 11.1575 26.9522 11.6457 26.9522C12.1338 26.9522 12.6171 26.856 13.068 26.669C13.5178 26.4826 13.9265 26.2096 14.2709 25.8655L24.5307 15.4C24.8621 15.0619 25.4048 15.0565 25.7429 15.3879C26.0809 15.7193 26.0863 16.262 25.7549 16.6L15.4864 27.0744C14.9822 27.5791 14.3835 27.9795 13.7245 28.2526C13.0655 28.5258 12.3591 28.6665 11.6457 28.6665C10.9323 28.6665 10.2259 28.5258 9.56684 28.2526C8.90783 27.9795 8.30912 27.5791 7.80495 27.0743L4.92562 24.195C4.42089 23.6908 4.02049 23.0921 3.7473 22.4331C3.47411 21.7741 3.3335 21.0677 3.3335 20.3543C3.3335 19.6409 3.47411 18.9345 3.7473 18.2755C4.02049 17.6164 4.42089 17.0177 4.92562 16.5136L4.9313 16.5079L15.3999 6.24507C15.7379 5.91367 16.2806 5.91906 16.612 6.2571Z"/>
<path fill-rule="evenodd" clip-rule="evenodd" d="M23.3936 0.536818C23.7284 0.202083 24.2711 0.202083 24.6058 0.536818L31.463 7.39396C31.7977 7.7287 31.7977 8.27141 31.463 8.60614C31.1282 8.94088 30.5855 8.94088 30.2508 8.60614L23.3936 1.749C23.0589 1.41427 23.0589 0.871553 23.3936 0.536818Z"/>
<path fill-rule="evenodd" clip-rule="evenodd" d="M28.0342 3.96541C28.369 4.30014 28.369 4.84285 28.0342 5.17759L21.1771 12.0347C20.8424 12.3695 20.2997 12.3695 19.9649 12.0347C19.6302 11.7 19.6302 11.1573 19.9649 10.8226L26.8221 3.96541C27.1568 3.63067 27.6995 3.63067 28.0342 3.96541Z"/>
<path fill-rule="evenodd" clip-rule="evenodd" d="M7.57745 24.4226C7.91219 24.7573 7.91219 25.3 7.57745 25.6347L1.74888 31.4633C1.41414 31.798 0.871431 31.798 0.536696 31.4633C0.201961 31.1286 0.201961 30.5859 0.536696 30.2511L6.36527 24.4226C6.7 24.0878 7.24272 24.0878 7.57745 24.4226Z"/>
<path fill-rule="evenodd" clip-rule="evenodd" d="M11.9649 2.82258C12.2997 2.48785 12.8424 2.48785 13.1771 2.82258L29.1771 18.8226C29.5118 19.1573 29.5118 19.7 29.1771 20.0348C28.8424 20.3695 28.2997 20.3695 27.9649 20.0348L11.9649 4.03477C11.6302 3.70003 11.6302 3.15732 11.9649 2.82258Z"/>
</svg>
