<svg width="32" height="32" viewBox="0 0 32 32"  xmlns="http://www.w3.org/2000/svg">
<path fill-rule="evenodd" clip-rule="evenodd" d="M23.2892 8.40264C23.698 8.64126 23.836 9.16614 23.5974 9.57498L16.2609 22.1454C16.2607 22.1456 16.261 22.1452 16.2609 22.1454C16.1164 22.3935 15.92 22.6081 15.6855 22.7736C15.4524 22.9382 15.1868 23.0509 14.9065 23.1043C14.6236 23.1605 14.3318 23.1533 14.052 23.0834C13.7725 23.0135 13.512 22.8827 13.289 22.7004L8.60737 18.9551C8.23771 18.6594 8.17778 18.12 8.4735 17.7503C8.76923 17.3807 9.30862 17.3207 9.67827 17.6165L14.3735 21.3726C14.401 21.3953 14.4332 21.4116 14.4678 21.4203C14.5024 21.4289 14.5385 21.4297 14.5734 21.4227L14.5848 21.4204C14.6251 21.4128 14.6634 21.3967 14.6969 21.3731C14.7304 21.3494 14.7584 21.3188 14.7791 21.2833L22.1168 8.71087C22.3554 8.30202 22.8803 8.16402 23.2892 8.40264Z"/>
<path fill-rule="evenodd" clip-rule="evenodd" d="M15.9999 2.00005C8.26794 2.00005 1.99993 8.26807 1.99993 16.0001C1.99993 23.732 8.26794 30.0001 15.9999 30.0001C23.7319 30.0001 29.9999 23.732 29.9999 16.0001C29.9999 8.26807 23.7319 2.00005 15.9999 2.00005ZM0.285645 16.0001C0.285645 7.32129 7.32117 0.285767 15.9999 0.285767C24.6787 0.285767 31.7142 7.32129 31.7142 16.0001C31.7142 24.6788 24.6787 31.7143 15.9999 31.7143C7.32117 31.7143 0.285645 24.6788 0.285645 16.0001Z"/>
</svg>
