<svg width="32" height="32" viewBox="0 0 32 32"  xmlns="http://www.w3.org/2000/svg">
<path fill-rule="evenodd" clip-rule="evenodd" d="M3.4285 7.71429C2.63952 7.71429 1.99993 8.35388 1.99993 9.14286V16C1.99993 16.789 2.63952 17.4286 3.4285 17.4286H28.5714C29.3603 17.4286 29.9999 16.789 29.9999 16V9.14286C29.9999 8.35388 29.3603 7.71429 28.5714 7.71429H3.4285ZM0.285645 9.14286C0.285645 7.4071 1.69275 6 3.4285 6H28.5714C30.3071 6 31.7142 7.4071 31.7142 9.14286V16C31.7142 17.7358 30.3071 19.1429 28.5714 19.1429H3.4285C1.69275 19.1429 0.285645 17.7358 0.285645 16V9.14286Z"/>
<path fill-rule="evenodd" clip-rule="evenodd" d="M3.42843 17.4285C3.90182 17.4285 4.28557 17.8122 4.28557 18.2856V28.5713C4.28557 28.9502 4.43608 29.3136 4.70399 29.5815C4.9719 29.8494 5.33527 29.9999 5.71415 29.9999H26.2856C26.6645 29.9999 27.0278 29.8494 27.2957 29.5815C27.5636 29.3136 27.7141 28.9502 27.7141 28.5713V18.2856C27.7141 17.8122 28.0979 17.4285 28.5713 17.4285C29.0447 17.4285 29.4284 17.8122 29.4284 18.2856V28.5713C29.4284 29.4049 29.0973 30.2043 28.5079 30.7937C27.9185 31.3831 27.1191 31.7142 26.2856 31.7142H5.71415C4.88061 31.7142 4.08121 31.3831 3.49181 30.7937C2.90241 30.2043 2.57129 29.4049 2.57129 28.5713V18.2856C2.57129 17.8122 2.95504 17.4285 3.42843 17.4285Z"/>
<path fill-rule="evenodd" clip-rule="evenodd" d="M15.9997 6C16.4731 6 16.8569 6.38376 16.8569 6.85714V30.8571C16.8569 31.3305 16.4731 31.7143 15.9997 31.7143C15.5263 31.7143 15.1426 31.3305 15.1426 30.8571V6.85714C15.1426 6.38376 15.5263 6 15.9997 6Z"/>
<path fill-rule="evenodd" clip-rule="evenodd" d="M8.48433 0.594079C8.78739 0.230413 9.32787 0.181279 9.69154 0.484334L16 5.74134L22.3084 0.484334C22.672 0.181279 23.2125 0.230413 23.5156 0.594079C23.8186 0.957745 23.7695 1.49823 23.4058 1.80128L16.5487 7.51557C16.2308 7.78046 15.7691 7.78046 15.4512 7.51557L8.59408 1.80128C8.23041 1.49823 8.18128 0.957745 8.48433 0.594079Z"/>
</svg>
