<svg width="32" height="32" viewBox="0 0 32 32"  xmlns="http://www.w3.org/2000/svg">
<path fill-rule="evenodd" clip-rule="evenodd" d="M16.0002 2.63299C15.9283 2.63299 15.8578 2.65357 15.7972 2.69232C15.7365 2.73106 15.6882 2.78634 15.658 2.85163L15.6483 2.87187L12.0209 10.195C11.8772 10.5103 11.6548 10.7834 11.375 10.9882C11.0945 11.1934 10.7659 11.3229 10.421 11.3642L2.41154 12.5507C2.39187 12.5536 2.3721 12.5559 2.35228 12.5574C2.27956 12.5631 2.21004 12.5897 2.15213 12.634C2.09423 12.6784 2.05043 12.7386 2.02604 12.8073C2.00165 12.876 1.99771 12.9504 2.01471 13.0213C2.0317 13.0922 2.0689 13.1567 2.1218 13.2069L2.12682 13.2117L7.97395 18.8533C8.22311 19.0879 8.41022 19.3806 8.51846 19.7053C8.62719 20.0315 8.65289 20.3796 8.59327 20.7182C8.59309 20.7193 8.5929 20.7203 8.59271 20.7214L7.1994 28.8758L7.19894 28.8785C7.18609 28.9522 7.19421 29.0281 7.22237 29.0975C7.25053 29.1669 7.2976 29.227 7.35822 29.2709C7.41884 29.3149 7.49059 29.3409 7.56528 29.3461C7.63998 29.3513 7.71464 29.3354 7.78076 29.3003L15.0054 25.4822C15.013 25.4782 15.0206 25.4743 15.0282 25.4706C15.3307 25.3221 15.6632 25.2448 16.0002 25.2448C16.3372 25.2448 16.6697 25.3221 16.9722 25.4706C16.9799 25.4743 16.9875 25.4782 16.995 25.4822L24.2197 29.3003C24.2858 29.3354 24.3605 29.3513 24.4351 29.3461C24.5098 29.3409 24.5816 29.3149 24.6422 29.2709C24.7028 29.227 24.7499 29.1669 24.7781 29.0975C24.8062 29.0281 24.8143 28.9522 24.8015 28.8785L23.4077 20.8128C23.4076 20.812 23.4074 20.8112 23.4073 20.8105C23.3475 20.4716 23.3732 20.1232 23.482 19.7968C23.5895 19.4742 23.7749 19.1832 24.0216 18.9494L29.7965 13.2201C29.8025 13.2141 29.8086 13.2083 29.8148 13.2025C29.867 13.1536 29.9043 13.0909 29.9222 13.0216C29.9402 12.9523 29.9381 12.8794 29.9161 12.8113C29.8941 12.7432 29.8532 12.6827 29.7982 12.637C29.7431 12.5912 29.6762 12.5621 29.6052 12.553L29.5889 12.5507L21.5795 11.3642C21.2345 11.3229 20.906 11.1934 20.6255 10.9882C20.3457 10.7834 20.1233 10.5103 19.9795 10.1951L16.3521 2.87187L17.1202 2.49142L16.3424 2.85163C16.3122 2.78634 16.2639 2.73106 16.2033 2.69232C16.1426 2.65357 16.0722 2.63299 16.0002 2.63299ZM17.8927 2.11976C17.7246 1.76265 17.459 1.46028 17.1262 1.2477C16.79 1.03286 16.3993 0.918701 16.0002 0.918701C15.6012 0.918701 15.2105 1.03286 14.8742 1.2477C14.5415 1.46027 14.2758 1.76261 14.1078 2.11968L10.4778 9.44811C10.4725 9.45891 10.4674 9.46982 10.4625 9.48083C10.4406 9.53013 10.4062 9.57282 10.3627 9.60467C10.3191 9.63652 10.268 9.6564 10.2144 9.66234C10.204 9.6635 10.1936 9.66485 10.1832 9.66639L2.18596 10.8512C1.79492 10.8879 1.42186 11.034 1.1097 11.2731C0.788598 11.5191 0.545707 11.8528 0.410448 12.234C0.275188 12.6152 0.253363 13.0275 0.347616 13.4208C0.441564 13.8129 0.646823 14.1694 0.938646 14.4475C0.939592 14.4484 0.94054 14.4493 0.941489 14.4502L6.78792 20.0911L6.79791 20.1006C6.84107 20.1409 6.87347 20.1914 6.89215 20.2474C6.91083 20.3035 6.9152 20.3633 6.90486 20.4215L6.90389 20.4271L5.51006 28.5844C5.50998 28.5849 5.50989 28.5854 5.5098 28.5859C5.44228 28.9753 5.48528 29.3759 5.63393 29.7422C5.78277 30.1089 6.03156 30.4265 6.35199 30.6588C6.67242 30.8911 7.05163 31.0288 7.44647 31.0563C7.84089 31.0837 8.23508 30.9999 8.58428 30.8146C8.58465 30.8144 8.58502 30.8142 8.58539 30.814L15.7923 27.0053C15.8574 26.9749 15.9283 26.9591 16.0002 26.9591C16.0721 26.9591 16.1431 26.9749 16.2081 27.0053L23.415 30.814C23.4155 30.8142 23.4159 30.8145 23.4164 30.8147C23.7655 31 24.1596 31.0837 24.554 31.0563C24.9488 31.0288 25.328 30.8911 25.6484 30.6588C25.9689 30.4265 26.2177 30.1089 26.3665 29.7422C26.5153 29.3754 26.5583 28.9743 26.4904 28.5844L25.0963 20.5169L25.0956 20.5129C25.0852 20.4547 25.0896 20.3949 25.1083 20.3389C25.127 20.2828 25.1594 20.2324 25.2025 20.192C25.2088 20.1862 25.215 20.1802 25.221 20.1742L30.9961 14.4448C31.2805 14.1751 31.4835 13.831 31.5818 13.4514C31.6813 13.0672 31.6694 12.6627 31.5476 12.285C31.4257 11.9073 31.199 11.5721 30.8937 11.3184C30.5909 11.0668 30.2232 10.9058 29.833 10.8539L21.8173 9.66639C21.8069 9.66485 21.7964 9.6635 21.786 9.66234C21.7324 9.6564 21.6813 9.63652 21.6378 9.60467C21.5942 9.57282 21.5598 9.53012 21.5379 9.48083C21.5331 9.46982 21.5279 9.45891 21.5226 9.44811L17.8927 2.11976Z"/>
</svg>
