<svg width="40" height="40" viewBox="0 0 40 40"  xmlns="http://www.w3.org/2000/svg">
<path d="M38.9743 9.73649C39.1485 8.87182 38.7647 8.38721 37.857 8.38721H33.2847C32.2376 8.38721 31.8535 8.83685 31.5395 9.49418C31.5395 9.49418 29.1161 14.9699 26.108 18.2597C25.1424 19.3233 24.973 19.6433 24.4399 19.6433C24.0099 19.6433 23.8116 19.288 23.8116 18.3286V9.92241C23.8116 8.7462 23.6737 8.38721 22.6947 8.38721H15.4166C14.8551 8.38721 14.4801 8.69035 14.4801 9.12951C14.4801 10.2372 16.1904 10.4872 16.1904 13.4885V19.6808C16.1904 20.9262 16.1205 21.4105 15.5271 21.4105C13.9566 21.4105 9.87776 16.0804 7.78368 9.99164C7.36458 8.7462 6.91294 8.38721 5.72235 8.38721H1.16171C0.498486 8.38721 0 8.8497 0 9.50703C0 10.7179 1.43086 16.3223 7.05061 23.8292C10.82 28.8798 16.0978 31.613 20.5654 31.613C23.2881 31.613 23.8116 31.1445 23.8116 30.0026V26.1282C23.8116 25.1596 24.1954 24.7443 24.7539 24.7443C25.3822 24.7443 26.3094 24.9635 28.9006 27.4963C31.9718 30.4022 32.1814 31.613 33.8571 31.613H38.9875C39.5114 31.613 40 31.3707 40 30.506C40 29.3641 38.4989 27.3232 36.1953 24.9016C35.253 23.6561 33.717 22.3072 33.2284 21.6845C32.5303 20.9579 32.7398 20.5425 33.2284 19.7817C33.2284 19.7817 38.4504 12.1581 38.9743 9.73649Z"/>
</svg>
