<svg width="40" height="40" viewBox="0 0 40 40"  xmlns="http://www.w3.org/2000/svg">
<path fill-rule="evenodd" clip-rule="evenodd" d="M5.63495 6.68099C2.80564 6.8159 0.53291 8.9482 0.349294 11.669C0.173377 14.2758 0 17.4833 0 20C0 22.5167 0.173377 25.7242 0.349294 28.331C0.53291 31.0518 2.80564 33.1841 5.63495 33.319C9.73198 33.5144 15.5878 33.75 20 33.75C24.4122 33.75 30.268 33.5144 34.3651 33.319C37.1944 33.1841 39.4671 31.0518 39.6507 28.331C39.8266 25.7242 40 22.5167 40 20C40 17.4833 39.8266 14.2758 39.6507 11.669C39.4671 8.94821 37.1944 6.8159 34.3651 6.68099C30.268 6.48562 24.4122 6.25 20 6.25C15.5878 6.25 9.73198 6.48562 5.63495 6.68099ZM27.5 20L16.25 26.25V13.75L27.5 20Z"/>
</svg>
