<svg width="983" height="967" viewBox="0 0 983 967" fill="none" xmlns="http://www.w3.org/2000/svg">
<g opacity="1">
<mask id="path-1-outside-1_1125_8411" maskUnits="userSpaceOnUse" x="0.574707" y="0.321289" width="983" height="966" fill="black">
<rect fill="white" x="0.574707" y="0.321289" width="983" height="966"/>
<path d="M316.669 3.12641V162.378H330.708V3.12641H316.669ZM273.747 46.0482V57.6812H378.845V46.0482H273.747ZM278.159 127.88V139.513H375.034V127.88H278.159ZM284.176 100.402V112.035H369.418V100.402H284.176ZM238.647 18.1691V30.8049H267.73V18.1691H238.647ZM246.269 74.529V86.162H271.942V74.529H246.269ZM264.521 18.1691V19.9742C257.902 36.4209 244.063 69.3142 233.031 92.5802L245.667 95.5887C256.498 72.1221 270.137 41.034 278.36 20.1748L268.733 17.5674L266.326 18.1691H264.521ZM267.93 74.529V76.9358C263.919 124.671 250.08 158.567 228.418 174.412C231.427 177.22 235.238 182.235 237.043 185.444C261.913 165.988 276.154 131.29 280.967 75.7324L272.944 74.1278L270.538 74.529H267.93ZM247.071 102.408L235.438 106.018C248.676 168.195 275.151 182.435 323.087 182.435H374.232C375.034 178.424 377.24 172.005 379.447 168.596C370.822 168.796 330.107 168.796 323.688 168.796C282.772 168.796 257.902 156.762 247.071 102.408ZM287.385 19.1719V30.8049H353.774V73.3256H287.385V85.1591H366.811V19.1719H287.385ZM228.218 2.72527C219.593 32.2089 205.152 61.0908 188.706 80.1449C191.112 83.9557 194.923 92.179 196.327 95.5887C214.779 73.3256 231.427 39.63 241.856 6.53608L228.218 2.72527ZM213.977 53.4692V185.644H227.415V40.4322L227.215 40.2317L213.977 53.4692ZM428.185 75.1307V86.5631H577.809V75.1307H428.185ZM442.425 49.2573V60.2886H543.713V102.207H440.821V113.239H557.953V49.2573H442.425ZM489.358 35.0169V168.796C489.358 172.206 488.356 173.209 484.745 173.209C481.336 173.409 469.101 173.61 456.666 173.209C458.872 177.02 460.878 182.836 461.68 186.446C478.127 186.446 488.957 186.246 495.376 184.04C501.593 182.034 504 178.223 504 168.796V35.0169H489.358ZM433.199 124.07C443.629 130.287 456.465 139.513 462.683 145.731L471.909 136.505C465.09 130.488 452.253 121.663 441.824 115.846L433.199 124.07ZM555.546 116.849C546.119 124.872 529.873 135.903 518.04 142.321L526.664 149.943C538.899 144.126 554.543 134.7 566.578 125.674L555.546 116.849ZM507.209 109.227L495.576 112.035C507.41 146.934 530.876 172.607 564.572 184.04C566.578 180.229 570.589 174.813 573.798 172.005C541.105 162.579 517.839 139.513 507.209 109.227ZM422.569 165.988L429.789 178.223C444.23 172.407 462.282 164.986 479.531 157.565L476.923 146.533C456.866 153.954 436.208 161.576 422.569 165.988ZM483.542 1.72242V27.1947H498.986V1.72242H483.542ZM416.151 20.1748V33.4123H575.403V20.1748H416.151ZM408.93 20.1748V79.3426C408.93 108.826 407.526 149.742 391.481 178.825C394.89 180.229 401.108 184.24 403.715 186.848C420.563 156.361 423.171 110.832 423.171 79.3426V20.1748H408.93ZM601.477 38.0254L603.282 55.6755C624.943 51.0624 676.088 46.0482 697.549 43.8419C679.297 54.6726 660.243 80.3455 660.243 111.434C660.243 156.361 702.363 176.017 739.468 177.421L745.284 160.974C712.792 159.771 676.088 147.135 676.088 108.024C676.088 84.3568 693.538 53.6698 722.219 44.4436C732.448 41.6356 749.898 41.2345 761.531 41.4351L761.33 25.3896C747.892 25.7907 729.239 26.9941 707.176 28.7992C670.272 32.0083 632.364 35.6186 619.528 37.0226C615.516 37.4237 609.098 37.8248 601.477 38.0254ZM732.448 65.9045L722.42 70.317C728.437 78.7409 734.053 88.9699 738.666 98.5973L749.095 93.9842C744.683 84.9586 737.061 72.5233 732.448 65.9045ZM754.31 57.4806L744.482 62.0937C750.7 70.5176 756.717 80.546 761.531 90.1733L771.76 85.1591C767.146 76.3341 759.324 64.0994 754.31 57.4806ZM800.04 86.9642V98.3967H973.933V86.9642H800.04ZM796.831 169.799V181.633H976.741V169.799H796.831ZM837.546 119.456H934.822V137.106H837.546V119.456ZM822.905 108.826V147.737H950.266V108.826H822.905ZM841.357 150.946C845.97 157.565 850.383 166.39 851.987 172.607L865.626 167.794C863.821 161.776 859.007 153.152 854.193 146.934L841.357 150.946ZM918.777 146.132C915.969 152.35 910.353 161.977 906.341 167.994L918.175 172.607C922.387 166.791 927.401 158.969 932.014 150.946L918.777 146.132ZM829.122 51.263H942.043V65.7039H829.122V51.263ZM829.122 26.7935H942.043V41.034H829.122V26.7935ZM815.283 15.9628V76.5347H956.484V15.9628H815.283ZM856.801 1.32129V72.7238H869.838V1.32129H856.801ZM899.321 1.32129V72.7238H912.76V1.32129H899.321ZM272.343 274.556L253.89 272.751C253.89 288.195 251.083 306.246 247.472 322.091C242.057 346.761 226.011 400.313 203.147 430.799L219.393 437.418C242.057 400.714 256.498 350.772 263.317 322.693C265.925 310.257 268.733 293.811 269.936 286.59C270.738 282.579 271.541 278.367 272.343 274.556ZM341.539 296.017L326.898 302.636C340.937 319.082 356.582 354.583 362.599 375.242L378.043 367.821C371.424 349.168 353.974 312.263 341.539 296.017ZM200.138 318.681L201.943 335.93C206.957 335.128 215.381 334.125 219.994 333.523C232.229 332.32 269.735 327.907 283.174 327.907C296.01 327.907 304.434 331.317 304.434 349.569C304.434 371.23 301.425 397.505 295.007 410.943C290.795 419.768 284.778 421.372 277.357 421.372C271.741 421.372 261.312 419.768 252.888 417.161L255.495 434.008C261.913 435.412 271.34 436.816 279.162 436.816C291.999 436.816 302.027 433.607 308.445 420.169C316.669 403.522 319.878 371.631 319.878 347.764C319.878 320.486 305.236 313.667 287.385 313.667C273.747 313.667 233.031 318.28 218.189 318.681C211.771 318.882 206.556 318.882 200.138 318.681ZM404.518 304.641L405.721 319.684C413.142 319.885 421.767 320.085 429.188 320.085C453.657 320.286 479.932 315.873 499.587 310.458L499.186 295.616C476.121 303.237 450.849 305.845 429.188 305.845C420.563 305.845 411.939 305.444 404.518 304.641ZM475.72 271.949L458.07 270.143C457.468 284.183 453.055 301.833 448.643 314.469C440.42 338.136 421.767 373.838 403.916 394.697L419.36 402.72C436.007 380.256 454.459 343.752 464.087 314.87C468.9 300.63 473.112 281.776 475.72 271.949ZM523.054 333.924H507.209C508.011 355.987 510.218 391.889 510.218 407.132C510.218 417.963 504.602 426.788 487.954 426.788C472.31 426.788 464.488 420.37 464.488 411.143C464.488 401.917 474.516 395.098 489.358 395.098C518.842 395.098 541.908 412.949 557.351 426.988L565.775 413.35C549.329 399.109 523.455 382.262 489.76 382.262C467.296 382.262 449.846 393.895 449.846 412.347C449.846 432.404 467.697 441.229 489.76 441.229C514.63 441.229 524.859 428.192 524.859 412.146C524.859 398.909 523.054 368.422 522.653 355.385C522.452 348.165 522.452 342.148 523.054 333.924ZM563.168 339.139L572.193 325.902C562.566 318.681 539.902 305.644 525.26 299.427L517.238 311.461C530.475 317.678 552.337 329.913 563.168 339.139ZM667.063 426.587V441.429H780.384V426.587H667.063ZM674.885 328.308V342.749H776.172V328.308H674.885ZM718.007 264.126V433.808H733.25V264.126H718.007ZM596.863 300.229V314.068H663.452V300.229H596.863ZM628.553 360.4V447.246H643.395V342.549L628.553 360.4ZM628.553 262.722V307.048H643.395V262.722H628.553ZM642.192 346.56L633.568 354.182C641.791 361.402 661.447 380.456 668.868 389.081L678.094 376.846C672.277 371.832 649.011 351.374 642.192 346.56ZM657.836 300.229V303.438C645.802 333.924 617.121 364.411 589.844 380.456C592.451 383.064 596.061 390.084 597.666 393.895C626.347 375.442 657.034 342.148 672.277 305.243L663.653 299.627L660.845 300.229H657.836ZM805.856 425.183L807.862 440.025C843.363 438.822 897.717 436.415 948.26 433.808L948.862 419.969C896.714 422.375 840.755 424.381 805.856 425.183ZM804.051 363.207V377.448H970.323V363.207H804.051ZM838.349 324.899V338.939H934.221V324.899H838.349ZM859.007 372.233C852.99 389.883 841.156 414.754 831.73 430.398L845.168 434.811C854.996 419.768 866.629 396.301 875.855 377.047L859.007 372.233ZM906.743 393.493C924.593 409.539 944.449 432.604 953.475 447.647L967.114 439.424C957.687 424.18 938.031 402.519 919.579 386.674L906.743 393.493ZM885.883 277.364C904.536 303.438 939.836 330.314 971.125 345.357C973.733 340.944 977.343 335.529 980.953 331.919C949.063 318.882 913.963 292.607 892.703 262.923H877.259C861.615 288.596 828.12 317.678 793.622 334.125C796.831 337.334 800.642 342.749 802.447 346.36C836.543 329.311 869.437 301.833 885.883 277.364ZM97.0455 555.212L80.3983 554.811C78.3926 575.67 74.1807 598.334 68.3642 617.388C58.1352 651.284 47.3044 664.923 37.8777 664.923C28.8521 664.923 17.4197 653.691 17.4197 628.419C17.4197 598.936 44.8976 562.633 89.0228 562.633C127.532 562.633 149.795 589.108 149.795 621.199C149.795 655.897 124.524 675.152 98.8507 680.969C94.037 681.971 88.0199 682.774 81.6017 683.375L90.8279 698.217C138.563 692 166.242 663.92 166.242 622.001C166.242 581.286 136.357 548.192 89.4239 548.192C40.2845 548.192 1.57471 586.099 1.57471 629.623C1.57471 662.917 19.4253 683.375 37.4766 683.375C55.9289 683.375 71.9744 662.115 84.2091 620.998C90.4268 599.538 94.4381 576.071 97.0455 555.212ZM276.956 523.722V553.005H292.4V523.722H276.956ZM200.138 543.378V582.289H214.98V556.816H354.175V582.289H369.619V543.378H200.138ZM216.986 580.082V592.718H354.175V580.082H216.986ZM197.129 642.459V655.697H373.831V642.459H197.129ZM220.195 610.769V623.405H351.367V610.769H220.195ZM295.208 645.668L281.569 648.878C296.01 682.172 324.491 701.025 366.811 708.647C368.817 704.636 372.828 698.619 376.037 695.409C335.723 689.794 307.643 673.347 295.208 645.668ZM276.755 563.435V613.377C276.755 642.259 270.738 674.951 195.124 696.011C198.333 699.22 202.745 704.836 204.35 708.045C282.171 684.779 291.798 647.674 291.798 613.377V563.435H276.755ZM395.091 533.951V547.991H464.087V533.951H395.091ZM397.498 590.712V604.752H462.081V590.712H397.498ZM391.28 662.115L395.292 676.757C414.947 670.74 441.824 662.917 467.095 655.296L465.09 641.858C438.013 649.68 409.933 657.502 391.28 662.115ZM487.353 577.274H553.139V597.532H487.353V577.274ZM487.353 609.767H553.139V630.024H487.353V609.767ZM487.353 545.183H553.139V565.24H487.353V545.183ZM473.313 532.347V643.061H567.781V532.347H473.313ZM525.862 636.843V687.988C525.862 702.429 529.272 706.842 543.913 706.842C546.721 706.842 560.36 706.842 563.368 706.842C575.603 706.842 579.414 700.424 580.617 675.553C576.807 674.751 570.789 672.344 567.781 669.937C567.179 690.596 566.377 693.604 561.764 693.604C558.755 693.604 548.326 693.604 546.12 693.604C541.306 693.604 540.303 692.802 540.303 687.788V636.843H525.862ZM491.765 639.852C488.556 667.731 480.333 686.986 443.428 697.014C446.437 699.822 450.448 705.639 452.053 709.449C492.568 696.813 502.797 673.748 506.407 639.852H491.765ZM422.97 539.567V660.109L437.411 657.703V539.567H422.97ZM677.091 556.616L677.292 572.862C699.154 575.269 738.064 575.269 759.525 572.862V556.616C739.669 559.624 698.953 560.427 677.091 556.616ZM684.913 638.448L670.472 637.044C668.266 646.671 667.263 653.892 667.263 660.51C667.263 679.364 682.306 690.596 715.801 690.596C736.66 690.596 753.508 688.991 765.943 686.384L765.542 669.536C749.496 673.347 733.852 674.951 716.001 674.951C688.524 674.951 682.105 665.926 682.105 656.7C682.105 651.284 683.108 645.668 684.913 638.448ZM638.983 541.172L621.132 539.768C620.932 544.18 620.33 549.195 619.728 553.808C617.322 570.455 610.703 604.752 610.703 634.236C610.703 661.513 614.112 684.579 618.124 698.819L632.364 697.816C632.164 695.61 631.963 692.802 631.762 690.796C631.762 688.39 632.164 684.579 632.765 681.771C634.57 672.144 641.992 651.084 647.006 636.843L638.582 630.225C635.172 638.448 630.559 650.482 627.149 659.508C625.946 649.68 625.344 641.256 625.344 631.629C625.344 608.964 631.562 573.263 635.373 554.61C636.175 551 637.78 544.582 638.983 541.172ZM806.057 558.22V708.045H820.899V573.062H958.69V558.22H806.057ZM953.074 558.22V687.988C953.074 691.799 952.071 692.802 948.06 693.003C943.848 693.203 930.009 693.203 915.367 692.602C917.774 696.813 919.98 703.833 920.782 708.246C939.034 708.246 951.67 707.845 958.891 705.438C965.91 703.031 968.117 698.017 968.117 688.189V558.22H953.074ZM874.25 523.121C870.841 535.355 864.222 552.805 858.606 564.037L873.047 567.446C879.064 556.816 886.686 540.57 892.903 526.33L874.25 523.121ZM847.374 599.537V680.367H861.213V599.537H847.374ZM853.792 599.537V613.176H911.957V652.488H853.792V665.926H925.997V599.537H853.792ZM738.465 796.757H719.612C720.414 799.765 721.216 804.178 721.617 808.59C722.219 817.014 723.021 848.102 723.021 860.939C723.021 899.448 722.018 922.313 700.558 940.966C695.543 945.98 687.32 950.994 681.102 953.602L695.744 964.833C738.265 939.963 738.265 907.07 738.265 861.139C738.265 849.907 737.462 816.011 737.663 808.59C737.663 803.977 737.863 799.966 738.465 796.757ZM665.057 838.274V854.119C673.882 854.922 687.922 855.523 697.75 855.523C723.222 855.523 751.302 853.718 770.757 850.509V834.263C750.7 838.876 722.219 840.481 697.549 840.481C686.518 840.481 673.882 839.678 665.057 838.274ZM636.977 799.765L618.324 797.759C618.124 801.37 617.923 806.785 617.322 811.198C614.915 828.045 609.7 858.732 609.7 891.425C609.7 916.496 616.118 942.57 620.129 955.005L633.969 953.401C633.768 951.195 633.367 948.587 633.367 946.582C633.166 944.175 633.568 940.364 634.169 937.556C636.376 927.528 642.393 907.069 647.206 893.23L638.582 888.015C634.972 897.843 630.559 910.078 627.952 918.703C620.129 885.809 627.149 841.885 633.568 812.802C634.37 808.991 635.774 803.375 636.977 799.765ZM803.249 819.822L805.054 837.472C826.916 832.859 877.861 827.845 899.522 825.638C881.07 836.469 862.016 861.941 862.016 893.23C862.016 938.158 904.135 957.813 941.441 959.217L947.057 942.771C914.565 941.367 877.861 928.932 877.861 889.821C877.861 866.153 895.31 835.466 923.991 826.24C934.22 823.432 951.67 823.031 963.303 823.232L963.102 807.186C949.664 807.587 931.011 808.791 909.149 810.596C872.044 813.805 834.337 817.415 821.3 818.819C817.289 819.22 810.871 819.621 803.249 819.822Z"/>
</mask>
<path d="M316.669 3.12641V162.378H330.708V3.12641H316.669ZM273.747 46.0482V57.6812H378.845V46.0482H273.747ZM278.159 127.88V139.513H375.034V127.88H278.159ZM284.176 100.402V112.035H369.418V100.402H284.176ZM238.647 18.1691V30.8049H267.73V18.1691H238.647ZM246.269 74.529V86.162H271.942V74.529H246.269ZM264.521 18.1691V19.9742C257.902 36.4209 244.063 69.3142 233.031 92.5802L245.667 95.5887C256.498 72.1221 270.137 41.034 278.36 20.1748L268.733 17.5674L266.326 18.1691H264.521ZM267.93 74.529V76.9358C263.919 124.671 250.08 158.567 228.418 174.412C231.427 177.22 235.238 182.235 237.043 185.444C261.913 165.988 276.154 131.29 280.967 75.7324L272.944 74.1278L270.538 74.529H267.93ZM247.071 102.408L235.438 106.018C248.676 168.195 275.151 182.435 323.087 182.435H374.232C375.034 178.424 377.24 172.005 379.447 168.596C370.822 168.796 330.107 168.796 323.688 168.796C282.772 168.796 257.902 156.762 247.071 102.408ZM287.385 19.1719V30.8049H353.774V73.3256H287.385V85.1591H366.811V19.1719H287.385ZM228.218 2.72527C219.593 32.2089 205.152 61.0908 188.706 80.1449C191.112 83.9557 194.923 92.179 196.327 95.5887C214.779 73.3256 231.427 39.63 241.856 6.53608L228.218 2.72527ZM213.977 53.4692V185.644H227.415V40.4322L227.215 40.2317L213.977 53.4692ZM428.185 75.1307V86.5631H577.809V75.1307H428.185ZM442.425 49.2573V60.2886H543.713V102.207H440.821V113.239H557.953V49.2573H442.425ZM489.358 35.0169V168.796C489.358 172.206 488.356 173.209 484.745 173.209C481.336 173.409 469.101 173.61 456.666 173.209C458.872 177.02 460.878 182.836 461.68 186.446C478.127 186.446 488.957 186.246 495.376 184.04C501.593 182.034 504 178.223 504 168.796V35.0169H489.358ZM433.199 124.07C443.629 130.287 456.465 139.513 462.683 145.731L471.909 136.505C465.09 130.488 452.253 121.663 441.824 115.846L433.199 124.07ZM555.546 116.849C546.119 124.872 529.873 135.903 518.04 142.321L526.664 149.943C538.899 144.126 554.543 134.7 566.578 125.674L555.546 116.849ZM507.209 109.227L495.576 112.035C507.41 146.934 530.876 172.607 564.572 184.04C566.578 180.229 570.589 174.813 573.798 172.005C541.105 162.579 517.839 139.513 507.209 109.227ZM422.569 165.988L429.789 178.223C444.23 172.407 462.282 164.986 479.531 157.565L476.923 146.533C456.866 153.954 436.208 161.576 422.569 165.988ZM483.542 1.72242V27.1947H498.986V1.72242H483.542ZM416.151 20.1748V33.4123H575.403V20.1748H416.151ZM408.93 20.1748V79.3426C408.93 108.826 407.526 149.742 391.481 178.825C394.89 180.229 401.108 184.24 403.715 186.848C420.563 156.361 423.171 110.832 423.171 79.3426V20.1748H408.93ZM601.477 38.0254L603.282 55.6755C624.943 51.0624 676.088 46.0482 697.549 43.8419C679.297 54.6726 660.243 80.3455 660.243 111.434C660.243 156.361 702.363 176.017 739.468 177.421L745.284 160.974C712.792 159.771 676.088 147.135 676.088 108.024C676.088 84.3568 693.538 53.6698 722.219 44.4436C732.448 41.6356 749.898 41.2345 761.531 41.4351L761.33 25.3896C747.892 25.7907 729.239 26.9941 707.176 28.7992C670.272 32.0083 632.364 35.6186 619.528 37.0226C615.516 37.4237 609.098 37.8248 601.477 38.0254ZM732.448 65.9045L722.42 70.317C728.437 78.7409 734.053 88.9699 738.666 98.5973L749.095 93.9842C744.683 84.9586 737.061 72.5233 732.448 65.9045ZM754.31 57.4806L744.482 62.0937C750.7 70.5176 756.717 80.546 761.531 90.1733L771.76 85.1591C767.146 76.3341 759.324 64.0994 754.31 57.4806ZM800.04 86.9642V98.3967H973.933V86.9642H800.04ZM796.831 169.799V181.633H976.741V169.799H796.831ZM837.546 119.456H934.822V137.106H837.546V119.456ZM822.905 108.826V147.737H950.266V108.826H822.905ZM841.357 150.946C845.97 157.565 850.383 166.39 851.987 172.607L865.626 167.794C863.821 161.776 859.007 153.152 854.193 146.934L841.357 150.946ZM918.777 146.132C915.969 152.35 910.353 161.977 906.341 167.994L918.175 172.607C922.387 166.791 927.401 158.969 932.014 150.946L918.777 146.132ZM829.122 51.263H942.043V65.7039H829.122V51.263ZM829.122 26.7935H942.043V41.034H829.122V26.7935ZM815.283 15.9628V76.5347H956.484V15.9628H815.283ZM856.801 1.32129V72.7238H869.838V1.32129H856.801ZM899.321 1.32129V72.7238H912.76V1.32129H899.321ZM272.343 274.556L253.89 272.751C253.89 288.195 251.083 306.246 247.472 322.091C242.057 346.761 226.011 400.313 203.147 430.799L219.393 437.418C242.057 400.714 256.498 350.772 263.317 322.693C265.925 310.257 268.733 293.811 269.936 286.59C270.738 282.579 271.541 278.367 272.343 274.556ZM341.539 296.017L326.898 302.636C340.937 319.082 356.582 354.583 362.599 375.242L378.043 367.821C371.424 349.168 353.974 312.263 341.539 296.017ZM200.138 318.681L201.943 335.93C206.957 335.128 215.381 334.125 219.994 333.523C232.229 332.32 269.735 327.907 283.174 327.907C296.01 327.907 304.434 331.317 304.434 349.569C304.434 371.23 301.425 397.505 295.007 410.943C290.795 419.768 284.778 421.372 277.357 421.372C271.741 421.372 261.312 419.768 252.888 417.161L255.495 434.008C261.913 435.412 271.34 436.816 279.162 436.816C291.999 436.816 302.027 433.607 308.445 420.169C316.669 403.522 319.878 371.631 319.878 347.764C319.878 320.486 305.236 313.667 287.385 313.667C273.747 313.667 233.031 318.28 218.189 318.681C211.771 318.882 206.556 318.882 200.138 318.681ZM404.518 304.641L405.721 319.684C413.142 319.885 421.767 320.085 429.188 320.085C453.657 320.286 479.932 315.873 499.587 310.458L499.186 295.616C476.121 303.237 450.849 305.845 429.188 305.845C420.563 305.845 411.939 305.444 404.518 304.641ZM475.72 271.949L458.07 270.143C457.468 284.183 453.055 301.833 448.643 314.469C440.42 338.136 421.767 373.838 403.916 394.697L419.36 402.72C436.007 380.256 454.459 343.752 464.087 314.87C468.9 300.63 473.112 281.776 475.72 271.949ZM523.054 333.924H507.209C508.011 355.987 510.218 391.889 510.218 407.132C510.218 417.963 504.602 426.788 487.954 426.788C472.31 426.788 464.488 420.37 464.488 411.143C464.488 401.917 474.516 395.098 489.358 395.098C518.842 395.098 541.908 412.949 557.351 426.988L565.775 413.35C549.329 399.109 523.455 382.262 489.76 382.262C467.296 382.262 449.846 393.895 449.846 412.347C449.846 432.404 467.697 441.229 489.76 441.229C514.63 441.229 524.859 428.192 524.859 412.146C524.859 398.909 523.054 368.422 522.653 355.385C522.452 348.165 522.452 342.148 523.054 333.924ZM563.168 339.139L572.193 325.902C562.566 318.681 539.902 305.644 525.26 299.427L517.238 311.461C530.475 317.678 552.337 329.913 563.168 339.139ZM667.063 426.587V441.429H780.384V426.587H667.063ZM674.885 328.308V342.749H776.172V328.308H674.885ZM718.007 264.126V433.808H733.25V264.126H718.007ZM596.863 300.229V314.068H663.452V300.229H596.863ZM628.553 360.4V447.246H643.395V342.549L628.553 360.4ZM628.553 262.722V307.048H643.395V262.722H628.553ZM642.192 346.56L633.568 354.182C641.791 361.402 661.447 380.456 668.868 389.081L678.094 376.846C672.277 371.832 649.011 351.374 642.192 346.56ZM657.836 300.229V303.438C645.802 333.924 617.121 364.411 589.844 380.456C592.451 383.064 596.061 390.084 597.666 393.895C626.347 375.442 657.034 342.148 672.277 305.243L663.653 299.627L660.845 300.229H657.836ZM805.856 425.183L807.862 440.025C843.363 438.822 897.717 436.415 948.26 433.808L948.862 419.969C896.714 422.375 840.755 424.381 805.856 425.183ZM804.051 363.207V377.448H970.323V363.207H804.051ZM838.349 324.899V338.939H934.221V324.899H838.349ZM859.007 372.233C852.99 389.883 841.156 414.754 831.73 430.398L845.168 434.811C854.996 419.768 866.629 396.301 875.855 377.047L859.007 372.233ZM906.743 393.493C924.593 409.539 944.449 432.604 953.475 447.647L967.114 439.424C957.687 424.18 938.031 402.519 919.579 386.674L906.743 393.493ZM885.883 277.364C904.536 303.438 939.836 330.314 971.125 345.357C973.733 340.944 977.343 335.529 980.953 331.919C949.063 318.882 913.963 292.607 892.703 262.923H877.259C861.615 288.596 828.12 317.678 793.622 334.125C796.831 337.334 800.642 342.749 802.447 346.36C836.543 329.311 869.437 301.833 885.883 277.364ZM97.0455 555.212L80.3983 554.811C78.3926 575.67 74.1807 598.334 68.3642 617.388C58.1352 651.284 47.3044 664.923 37.8777 664.923C28.8521 664.923 17.4197 653.691 17.4197 628.419C17.4197 598.936 44.8976 562.633 89.0228 562.633C127.532 562.633 149.795 589.108 149.795 621.199C149.795 655.897 124.524 675.152 98.8507 680.969C94.037 681.971 88.0199 682.774 81.6017 683.375L90.8279 698.217C138.563 692 166.242 663.92 166.242 622.001C166.242 581.286 136.357 548.192 89.4239 548.192C40.2845 548.192 1.57471 586.099 1.57471 629.623C1.57471 662.917 19.4253 683.375 37.4766 683.375C55.9289 683.375 71.9744 662.115 84.2091 620.998C90.4268 599.538 94.4381 576.071 97.0455 555.212ZM276.956 523.722V553.005H292.4V523.722H276.956ZM200.138 543.378V582.289H214.98V556.816H354.175V582.289H369.619V543.378H200.138ZM216.986 580.082V592.718H354.175V580.082H216.986ZM197.129 642.459V655.697H373.831V642.459H197.129ZM220.195 610.769V623.405H351.367V610.769H220.195ZM295.208 645.668L281.569 648.878C296.01 682.172 324.491 701.025 366.811 708.647C368.817 704.636 372.828 698.619 376.037 695.409C335.723 689.794 307.643 673.347 295.208 645.668ZM276.755 563.435V613.377C276.755 642.259 270.738 674.951 195.124 696.011C198.333 699.22 202.745 704.836 204.35 708.045C282.171 684.779 291.798 647.674 291.798 613.377V563.435H276.755ZM395.091 533.951V547.991H464.087V533.951H395.091ZM397.498 590.712V604.752H462.081V590.712H397.498ZM391.28 662.115L395.292 676.757C414.947 670.74 441.824 662.917 467.095 655.296L465.09 641.858C438.013 649.68 409.933 657.502 391.28 662.115ZM487.353 577.274H553.139V597.532H487.353V577.274ZM487.353 609.767H553.139V630.024H487.353V609.767ZM487.353 545.183H553.139V565.24H487.353V545.183ZM473.313 532.347V643.061H567.781V532.347H473.313ZM525.862 636.843V687.988C525.862 702.429 529.272 706.842 543.913 706.842C546.721 706.842 560.36 706.842 563.368 706.842C575.603 706.842 579.414 700.424 580.617 675.553C576.807 674.751 570.789 672.344 567.781 669.937C567.179 690.596 566.377 693.604 561.764 693.604C558.755 693.604 548.326 693.604 546.12 693.604C541.306 693.604 540.303 692.802 540.303 687.788V636.843H525.862ZM491.765 639.852C488.556 667.731 480.333 686.986 443.428 697.014C446.437 699.822 450.448 705.639 452.053 709.449C492.568 696.813 502.797 673.748 506.407 639.852H491.765ZM422.97 539.567V660.109L437.411 657.703V539.567H422.97ZM677.091 556.616L677.292 572.862C699.154 575.269 738.064 575.269 759.525 572.862V556.616C739.669 559.624 698.953 560.427 677.091 556.616ZM684.913 638.448L670.472 637.044C668.266 646.671 667.263 653.892 667.263 660.51C667.263 679.364 682.306 690.596 715.801 690.596C736.66 690.596 753.508 688.991 765.943 686.384L765.542 669.536C749.496 673.347 733.852 674.951 716.001 674.951C688.524 674.951 682.105 665.926 682.105 656.7C682.105 651.284 683.108 645.668 684.913 638.448ZM638.983 541.172L621.132 539.768C620.932 544.18 620.33 549.195 619.728 553.808C617.322 570.455 610.703 604.752 610.703 634.236C610.703 661.513 614.112 684.579 618.124 698.819L632.364 697.816C632.164 695.61 631.963 692.802 631.762 690.796C631.762 688.39 632.164 684.579 632.765 681.771C634.57 672.144 641.992 651.084 647.006 636.843L638.582 630.225C635.172 638.448 630.559 650.482 627.149 659.508C625.946 649.68 625.344 641.256 625.344 631.629C625.344 608.964 631.562 573.263 635.373 554.61C636.175 551 637.78 544.582 638.983 541.172ZM806.057 558.22V708.045H820.899V573.062H958.69V558.22H806.057ZM953.074 558.22V687.988C953.074 691.799 952.071 692.802 948.06 693.003C943.848 693.203 930.009 693.203 915.367 692.602C917.774 696.813 919.98 703.833 920.782 708.246C939.034 708.246 951.67 707.845 958.891 705.438C965.91 703.031 968.117 698.017 968.117 688.189V558.22H953.074ZM874.25 523.121C870.841 535.355 864.222 552.805 858.606 564.037L873.047 567.446C879.064 556.816 886.686 540.57 892.903 526.33L874.25 523.121ZM847.374 599.537V680.367H861.213V599.537H847.374ZM853.792 599.537V613.176H911.957V652.488H853.792V665.926H925.997V599.537H853.792ZM738.465 796.757H719.612C720.414 799.765 721.216 804.178 721.617 808.59C722.219 817.014 723.021 848.102 723.021 860.939C723.021 899.448 722.018 922.313 700.558 940.966C695.543 945.98 687.32 950.994 681.102 953.602L695.744 964.833C738.265 939.963 738.265 907.07 738.265 861.139C738.265 849.907 737.462 816.011 737.663 808.59C737.663 803.977 737.863 799.966 738.465 796.757ZM665.057 838.274V854.119C673.882 854.922 687.922 855.523 697.75 855.523C723.222 855.523 751.302 853.718 770.757 850.509V834.263C750.7 838.876 722.219 840.481 697.549 840.481C686.518 840.481 673.882 839.678 665.057 838.274ZM636.977 799.765L618.324 797.759C618.124 801.37 617.923 806.785 617.322 811.198C614.915 828.045 609.7 858.732 609.7 891.425C609.7 916.496 616.118 942.57 620.129 955.005L633.969 953.401C633.768 951.195 633.367 948.587 633.367 946.582C633.166 944.175 633.568 940.364 634.169 937.556C636.376 927.528 642.393 907.069 647.206 893.23L638.582 888.015C634.972 897.843 630.559 910.078 627.952 918.703C620.129 885.809 627.149 841.885 633.568 812.802C634.37 808.991 635.774 803.375 636.977 799.765ZM803.249 819.822L805.054 837.472C826.916 832.859 877.861 827.845 899.522 825.638C881.07 836.469 862.016 861.941 862.016 893.23C862.016 938.158 904.135 957.813 941.441 959.217L947.057 942.771C914.565 941.367 877.861 928.932 877.861 889.821C877.861 866.153 895.31 835.466 923.991 826.24C934.22 823.432 951.67 823.031 963.303 823.232L963.102 807.186C949.664 807.587 931.011 808.791 909.149 810.596C872.044 813.805 834.337 817.415 821.3 818.819C817.289 819.22 810.871 819.621 803.249 819.822Z" stroke="black" stroke-width="2" mask="url(#path-1-outside-1_1125_8411)"/>
</g>
</svg>
