<svg width="502" height="601" viewBox="0 0 502 601" fill="none" xmlns="http://www.w3.org/2000/svg">
<g opacity="1">
<mask id="path-1-outside-1_1125_8415" maskUnits="userSpaceOnUse" x="0.566406" y="0.158936" width="501" height="601" fill="black">
<rect fill="white" x="0.566406" y="0.158936" width="501" height="601"/>
<path d="M83.7408 28.2627L69.4121 27.9174C67.6857 45.8715 64.0604 65.3793 59.054 81.7796C50.2496 110.955 40.9273 122.694 32.8134 122.694C25.0448 122.694 15.2046 113.027 15.2046 91.2746C15.2046 65.8972 38.8556 34.6502 76.8354 34.6502C109.981 34.6502 129.144 57.4381 129.144 85.0597C129.144 114.926 107.392 131.499 85.2945 136.505C81.1513 137.368 75.9722 138.059 70.4479 138.577L78.3891 151.352C119.476 146 143.3 121.831 143.3 85.7503C143.3 50.7053 117.577 22.2205 77.1807 22.2205C34.885 22.2205 1.56641 54.8485 1.56641 92.3104C1.56641 120.968 16.931 138.577 32.4681 138.577C48.3506 138.577 62.1614 120.277 72.6922 84.8871C78.0439 66.4151 81.4966 46.2168 83.7408 28.2627ZM238.595 1.15894V26.3637H251.888V1.15894H238.595ZM172.475 18.0772V51.5685H185.25V29.6438H305.059V51.5685H318.352V18.0772H172.475ZM186.977 49.6695V60.5455H305.059V49.6695H186.977ZM169.886 103.359V114.753H321.978V103.359H169.886ZM189.739 76.0827V86.9587H302.642V76.0827H189.739ZM254.305 106.121L242.565 108.883C254.995 137.541 279.509 153.769 315.935 160.329C317.662 156.876 321.114 151.697 323.877 148.935C289.177 144.101 265.008 129.945 254.305 106.121ZM238.422 35.3407V78.3269C238.422 103.186 233.243 131.326 168.16 149.453C170.922 152.215 174.72 157.049 176.101 159.811C243.083 139.785 251.37 107.848 251.37 78.3269V35.3407H238.422ZM340.277 9.96334V22.0478H399.663V9.96334H340.277ZM342.349 58.8191V70.9036H397.937V58.8191H342.349ZM336.997 120.277L340.45 132.88C357.368 127.701 380.501 120.968 402.253 114.408L400.527 102.841C377.221 109.574 353.052 116.307 336.997 120.277ZM419.689 47.2526H476.314V64.6887H419.689V47.2526ZM419.689 75.2195H476.314V92.6557H419.689V75.2195ZM419.689 19.6309H476.314V36.8945H419.689V19.6309ZM407.605 8.58225V103.877H488.916V8.58225H407.605ZM452.835 98.5253V142.547C452.835 154.977 455.77 158.775 468.372 158.775C470.789 158.775 482.528 158.775 485.118 158.775C495.649 158.775 498.929 153.251 499.965 131.844C496.685 131.153 491.505 129.082 488.916 127.01C488.398 144.792 487.707 147.381 483.737 147.381C481.147 147.381 472.17 147.381 470.271 147.381C466.128 147.381 465.265 146.691 465.265 142.375V98.5253H452.835ZM423.487 101.115C420.725 125.111 413.647 141.684 381.882 150.316C384.472 152.733 387.924 157.739 389.305 161.019C424.178 150.143 432.982 130.29 436.09 101.115H423.487ZM364.273 14.7971V118.551L376.703 116.479V14.7971H364.273ZM65.0962 253.471L65.2688 267.455C84.0861 269.526 117.577 269.526 136.049 267.455V253.471C118.958 256.061 83.9135 256.751 65.0962 253.471ZM71.829 323.906L59.3992 322.698C57.5003 330.984 56.6371 337.199 56.6371 342.896C56.6371 359.124 69.5847 368.792 98.4148 368.792C116.369 368.792 130.87 367.41 141.574 365.166L141.228 350.665C127.418 353.945 113.952 355.326 98.5875 355.326C74.9364 355.326 69.4121 347.557 69.4121 339.616C69.4121 334.955 70.2753 330.121 71.829 323.906ZM32.2955 240.178L16.931 238.97C16.7583 242.768 16.2404 247.084 15.7225 251.054C13.6509 265.383 7.95391 294.904 7.95391 320.281C7.95391 343.759 10.8887 363.612 14.3414 375.87L26.5985 375.006C26.4259 373.107 26.2533 370.691 26.0806 368.964C26.0806 366.893 26.4259 363.612 26.9438 361.196C28.4975 352.909 34.885 334.782 39.2009 322.525L31.9502 316.828C29.0154 323.906 25.0448 334.264 22.11 342.033C21.0742 333.574 20.5563 326.323 20.5563 318.037C20.5563 298.529 25.908 267.8 29.1881 251.745C29.8786 248.637 31.2597 243.113 32.2955 240.178ZM176.101 254.852V383.811H188.876V267.627H307.476V254.852H176.101ZM302.642 254.852V366.547C302.642 369.827 301.779 370.691 298.327 370.863C294.701 371.036 282.789 371.036 270.187 370.518C272.259 374.143 274.158 380.185 274.848 383.983C290.558 383.983 301.434 383.638 307.649 381.567C313.691 379.495 315.59 375.179 315.59 366.72V254.852H302.642ZM234.797 224.641C231.862 235.172 226.165 250.191 221.331 259.859L233.761 262.793C238.94 253.644 245.5 239.66 250.852 227.403L234.797 224.641ZM211.664 290.415V359.987H223.575V290.415H211.664ZM217.188 290.415V302.154H267.252V335.991H217.188V347.557H279.337V290.415H217.188ZM463.193 235.517H446.966C447.656 238.107 448.347 241.905 448.692 245.703C449.21 252.953 449.9 279.712 449.9 290.76C449.9 323.906 449.037 343.587 430.565 359.642C426.249 363.958 419.171 368.274 413.82 370.518L426.422 380.185C463.021 358.779 463.021 330.466 463.021 290.933C463.021 281.265 462.33 252.09 462.503 245.703C462.503 241.732 462.675 238.279 463.193 235.517ZM400.009 271.253V284.891C407.605 285.581 419.689 286.099 428.148 286.099C450.073 286.099 474.242 284.545 490.988 281.783V267.8C473.724 271.77 449.21 273.152 427.976 273.152C418.481 273.152 407.605 272.461 400.009 271.253ZM375.84 238.107L359.785 236.38C359.612 239.488 359.439 244.149 358.922 247.947C356.85 262.448 352.361 288.861 352.361 317.001C352.361 338.58 357.886 361.023 361.338 371.726L373.25 370.345C373.078 368.446 372.732 366.202 372.732 364.476C372.56 362.404 372.905 359.124 373.423 356.707C375.322 348.075 380.501 330.466 384.644 318.555L377.221 314.066C374.113 322.525 370.315 333.056 368.071 340.479C361.338 312.167 367.381 274.36 372.905 249.328C373.596 246.048 374.804 241.214 375.84 238.107ZM173.684 479.37L175.238 494.562C194.055 490.591 237.904 486.276 256.549 484.377C240.666 493.699 224.266 515.624 224.266 542.555C224.266 581.225 260.519 598.143 292.63 599.352L297.463 585.196C269.496 583.987 237.904 573.284 237.904 539.62C237.904 519.249 252.923 492.836 277.61 484.894C286.415 482.478 301.434 482.132 311.447 482.305L311.274 468.494C299.708 468.839 283.653 469.875 264.835 471.429C232.898 474.191 200.442 477.299 189.221 478.507C185.768 478.852 180.244 479.197 173.684 479.37Z"/>
</mask>
<path d="M83.7408 28.2627L69.4121 27.9174C67.6857 45.8715 64.0604 65.3793 59.054 81.7796C50.2496 110.955 40.9273 122.694 32.8134 122.694C25.0448 122.694 15.2046 113.027 15.2046 91.2746C15.2046 65.8972 38.8556 34.6502 76.8354 34.6502C109.981 34.6502 129.144 57.4381 129.144 85.0597C129.144 114.926 107.392 131.499 85.2945 136.505C81.1513 137.368 75.9722 138.059 70.4479 138.577L78.3891 151.352C119.476 146 143.3 121.831 143.3 85.7503C143.3 50.7053 117.577 22.2205 77.1807 22.2205C34.885 22.2205 1.56641 54.8485 1.56641 92.3104C1.56641 120.968 16.931 138.577 32.4681 138.577C48.3506 138.577 62.1614 120.277 72.6922 84.8871C78.0439 66.4151 81.4966 46.2168 83.7408 28.2627ZM238.595 1.15894V26.3637H251.888V1.15894H238.595ZM172.475 18.0772V51.5685H185.25V29.6438H305.059V51.5685H318.352V18.0772H172.475ZM186.977 49.6695V60.5455H305.059V49.6695H186.977ZM169.886 103.359V114.753H321.978V103.359H169.886ZM189.739 76.0827V86.9587H302.642V76.0827H189.739ZM254.305 106.121L242.565 108.883C254.995 137.541 279.509 153.769 315.935 160.329C317.662 156.876 321.114 151.697 323.877 148.935C289.177 144.101 265.008 129.945 254.305 106.121ZM238.422 35.3407V78.3269C238.422 103.186 233.243 131.326 168.16 149.453C170.922 152.215 174.72 157.049 176.101 159.811C243.083 139.785 251.37 107.848 251.37 78.3269V35.3407H238.422ZM340.277 9.96334V22.0478H399.663V9.96334H340.277ZM342.349 58.8191V70.9036H397.937V58.8191H342.349ZM336.997 120.277L340.45 132.88C357.368 127.701 380.501 120.968 402.253 114.408L400.527 102.841C377.221 109.574 353.052 116.307 336.997 120.277ZM419.689 47.2526H476.314V64.6887H419.689V47.2526ZM419.689 75.2195H476.314V92.6557H419.689V75.2195ZM419.689 19.6309H476.314V36.8945H419.689V19.6309ZM407.605 8.58225V103.877H488.916V8.58225H407.605ZM452.835 98.5253V142.547C452.835 154.977 455.77 158.775 468.372 158.775C470.789 158.775 482.528 158.775 485.118 158.775C495.649 158.775 498.929 153.251 499.965 131.844C496.685 131.153 491.505 129.082 488.916 127.01C488.398 144.792 487.707 147.381 483.737 147.381C481.147 147.381 472.17 147.381 470.271 147.381C466.128 147.381 465.265 146.691 465.265 142.375V98.5253H452.835ZM423.487 101.115C420.725 125.111 413.647 141.684 381.882 150.316C384.472 152.733 387.924 157.739 389.305 161.019C424.178 150.143 432.982 130.29 436.09 101.115H423.487ZM364.273 14.7971V118.551L376.703 116.479V14.7971H364.273ZM65.0962 253.471L65.2688 267.455C84.0861 269.526 117.577 269.526 136.049 267.455V253.471C118.958 256.061 83.9135 256.751 65.0962 253.471ZM71.829 323.906L59.3992 322.698C57.5003 330.984 56.6371 337.199 56.6371 342.896C56.6371 359.124 69.5847 368.792 98.4148 368.792C116.369 368.792 130.87 367.41 141.574 365.166L141.228 350.665C127.418 353.945 113.952 355.326 98.5875 355.326C74.9364 355.326 69.4121 347.557 69.4121 339.616C69.4121 334.955 70.2753 330.121 71.829 323.906ZM32.2955 240.178L16.931 238.97C16.7583 242.768 16.2404 247.084 15.7225 251.054C13.6509 265.383 7.95391 294.904 7.95391 320.281C7.95391 343.759 10.8887 363.612 14.3414 375.87L26.5985 375.006C26.4259 373.107 26.2533 370.691 26.0806 368.964C26.0806 366.893 26.4259 363.612 26.9438 361.196C28.4975 352.909 34.885 334.782 39.2009 322.525L31.9502 316.828C29.0154 323.906 25.0448 334.264 22.11 342.033C21.0742 333.574 20.5563 326.323 20.5563 318.037C20.5563 298.529 25.908 267.8 29.1881 251.745C29.8786 248.637 31.2597 243.113 32.2955 240.178ZM176.101 254.852V383.811H188.876V267.627H307.476V254.852H176.101ZM302.642 254.852V366.547C302.642 369.827 301.779 370.691 298.327 370.863C294.701 371.036 282.789 371.036 270.187 370.518C272.259 374.143 274.158 380.185 274.848 383.983C290.558 383.983 301.434 383.638 307.649 381.567C313.691 379.495 315.59 375.179 315.59 366.72V254.852H302.642ZM234.797 224.641C231.862 235.172 226.165 250.191 221.331 259.859L233.761 262.793C238.94 253.644 245.5 239.66 250.852 227.403L234.797 224.641ZM211.664 290.415V359.987H223.575V290.415H211.664ZM217.188 290.415V302.154H267.252V335.991H217.188V347.557H279.337V290.415H217.188ZM463.193 235.517H446.966C447.656 238.107 448.347 241.905 448.692 245.703C449.21 252.953 449.9 279.712 449.9 290.76C449.9 323.906 449.037 343.587 430.565 359.642C426.249 363.958 419.171 368.274 413.82 370.518L426.422 380.185C463.021 358.779 463.021 330.466 463.021 290.933C463.021 281.265 462.33 252.09 462.503 245.703C462.503 241.732 462.675 238.279 463.193 235.517ZM400.009 271.253V284.891C407.605 285.581 419.689 286.099 428.148 286.099C450.073 286.099 474.242 284.545 490.988 281.783V267.8C473.724 271.77 449.21 273.152 427.976 273.152C418.481 273.152 407.605 272.461 400.009 271.253ZM375.84 238.107L359.785 236.38C359.612 239.488 359.439 244.149 358.922 247.947C356.85 262.448 352.361 288.861 352.361 317.001C352.361 338.58 357.886 361.023 361.338 371.726L373.25 370.345C373.078 368.446 372.732 366.202 372.732 364.476C372.56 362.404 372.905 359.124 373.423 356.707C375.322 348.075 380.501 330.466 384.644 318.555L377.221 314.066C374.113 322.525 370.315 333.056 368.071 340.479C361.338 312.167 367.381 274.36 372.905 249.328C373.596 246.048 374.804 241.214 375.84 238.107ZM173.684 479.37L175.238 494.562C194.055 490.591 237.904 486.276 256.549 484.377C240.666 493.699 224.266 515.624 224.266 542.555C224.266 581.225 260.519 598.143 292.63 599.352L297.463 585.196C269.496 583.987 237.904 573.284 237.904 539.62C237.904 519.249 252.923 492.836 277.61 484.894C286.415 482.478 301.434 482.132 311.447 482.305L311.274 468.494C299.708 468.839 283.653 469.875 264.835 471.429C232.898 474.191 200.442 477.299 189.221 478.507C185.768 478.852 180.244 479.197 173.684 479.37Z" stroke="black" stroke-width="2" mask="url(#path-1-outside-1_1125_8415)"/>
</g>
</svg>
