<svg width="503" height="610" viewBox="0 0 503 610" fill="none" xmlns="http://www.w3.org/2000/svg">
<g opacity="1">
<mask id="path-1-outside-1_1125_8416" maskUnits="userSpaceOnUse" x="-0.487305" y="0.158936" width="504" height="610" fill="black">
<rect fill="white" x="-0.487305" y="0.158936" width="504" height="610"/>
<path d="M211.983 2.36739V139.44H224.067V2.36739H211.983ZM175.039 39.3113V49.3242H265.5V39.3113H175.039ZM178.837 109.747V119.759H262.22V109.747H178.837ZM184.016 86.0955V96.1084H257.386V86.0955H184.016ZM144.828 15.315V26.1911H169.86V15.315H144.828ZM151.388 63.8256V73.8384H173.485V63.8256H151.388ZM167.098 15.315V16.8688C161.401 31.0249 149.489 59.337 139.994 79.3627L150.87 81.9523C160.192 61.7539 171.931 34.9955 179.009 17.0414L170.723 14.7971L168.651 15.315H167.098ZM170.032 63.8256V65.8972C166.58 106.984 154.668 136.16 136.023 149.798C138.613 152.215 141.893 156.531 143.447 159.293C164.853 142.547 177.11 112.681 181.254 64.8614L174.348 63.4803L172.277 63.8256H170.032ZM152.078 87.8219L142.066 90.9293C153.459 144.446 176.247 156.703 217.507 156.703H261.529C262.22 153.251 264.119 147.726 266.018 144.792C258.594 144.964 223.549 144.964 218.025 144.964C182.807 144.964 161.401 134.606 152.078 87.8219ZM186.778 16.1782V26.1911H243.92V62.7898H186.778V72.9752H255.142V16.1782H186.778ZM135.851 2.02211C128.427 27.3995 115.998 52.259 101.841 68.6594C103.913 71.9394 107.193 79.0175 108.402 81.9523C124.284 62.7897 138.613 33.787 147.59 5.30218L135.851 2.02211ZM123.594 45.6989V159.466H135.16V34.4776L134.987 34.3049L123.594 45.6989ZM307.968 64.3435V74.1837H436.754V64.3435H307.968ZM320.225 42.0735V51.5685H407.406V87.6492H318.844V97.1442H419.663V42.0735H320.225ZM360.622 29.8164V144.964C360.622 147.899 359.759 148.762 356.651 148.762C353.716 148.935 343.186 149.107 332.482 148.762C334.381 152.042 336.108 157.049 336.798 160.156C350.954 160.156 360.277 159.983 365.801 158.084C371.153 156.358 373.224 153.078 373.224 144.964V29.8164H360.622ZM312.284 106.466C321.261 111.818 332.31 119.759 337.661 125.111L345.603 117.17C339.733 111.991 328.684 104.395 319.707 99.3884L312.284 106.466ZM417.592 100.252C409.478 107.157 395.494 116.652 385.309 122.176L392.732 128.736C403.263 123.73 416.728 115.616 427.086 107.848L417.592 100.252ZM375.986 93.6915L365.974 96.1084C376.159 126.147 396.357 148.244 425.36 158.084C427.086 154.804 430.539 150.143 433.301 147.726C405.162 139.612 385.136 119.759 375.986 93.6915ZM303.134 142.547L309.349 153.078C321.779 148.072 337.316 141.684 352.163 135.297L349.918 125.802C332.655 132.189 314.874 138.749 303.134 142.547ZM355.615 1.15894V23.0836H368.908V1.15894H355.615ZM297.61 17.0414V28.4353H434.682V17.0414H297.61ZM291.395 17.0414V67.9688C291.395 93.3462 290.187 128.564 276.376 153.596C279.311 154.804 284.662 158.257 286.907 160.501C301.408 134.261 303.652 95.0726 303.652 67.9688V17.0414H291.395ZM1.5127 256.406L3.06641 271.598C21.711 267.627 65.733 263.311 84.205 261.412C68.4952 270.735 52.0948 292.832 52.0948 319.59C52.0948 358.261 88.3483 375.179 120.286 376.387L125.292 362.231C97.3253 361.196 65.733 350.32 65.733 316.656C65.733 296.285 80.7523 269.871 105.439 261.93C114.244 259.513 129.263 259.168 139.276 259.341L139.103 245.53C127.536 245.875 111.481 246.911 92.4915 248.465C60.7266 251.227 28.0985 254.334 17.0499 255.543C13.5972 255.888 8.07284 256.233 1.5127 256.406ZM114.244 280.402L105.612 284.2C110.791 291.451 115.625 300.255 119.595 308.542L128.572 304.571C124.774 296.803 118.214 286.099 114.244 280.402ZM133.061 273.152L124.602 277.122C129.953 284.373 135.132 293.005 139.276 301.291L148.08 296.975C144.109 289.379 137.377 278.849 133.061 273.152ZM172.422 298.529V308.369H322.097V298.529H172.422ZM169.66 369.827V380.013H324.513V369.827H169.66ZM204.704 326.496H288.433V341.688H204.704V326.496ZM192.102 317.346V350.837H301.726V317.346H192.102ZM207.985 353.6C211.955 359.297 215.753 366.893 217.134 372.244L228.873 368.101C227.32 362.922 223.176 355.499 219.033 350.147L207.985 353.6ZM274.622 349.456C272.205 354.808 267.371 363.095 263.918 368.274L274.104 372.244C277.729 367.238 282.045 360.505 286.016 353.6L274.622 349.456ZM197.454 267.8H294.647V280.23H197.454V267.8ZM197.454 246.738H294.647V258.995H197.454V246.738ZM185.542 237.416V289.552H307.077V237.416H185.542ZM221.277 224.814V286.272H232.499V224.814H221.277ZM257.876 224.814V286.272H269.443V224.814H257.876ZM408.759 235.344L392.877 233.791C392.877 247.084 390.46 262.621 387.353 276.259C382.692 297.493 368.881 343.587 349.2 369.827L363.184 375.524C382.692 343.932 395.121 300.946 400.991 276.777C403.235 266.074 405.652 251.917 406.688 245.703C407.378 242.25 408.069 238.624 408.759 235.344ZM468.319 253.816L455.716 259.513C467.801 273.669 481.266 304.226 486.445 322.007L499.738 315.62C494.041 299.565 479.022 267.8 468.319 253.816ZM346.611 273.324L348.164 288.171C352.48 287.48 359.731 286.617 363.702 286.099C374.232 285.063 406.515 281.265 418.082 281.265C429.13 281.265 436.381 284.2 436.381 299.91C436.381 318.555 433.792 341.17 428.267 352.736C424.642 360.332 419.463 361.714 413.075 361.714C408.242 361.714 399.265 360.332 392.014 358.088L394.258 372.59C399.782 373.798 407.896 375.006 414.629 375.006C425.678 375.006 434.309 372.244 439.834 360.678C446.912 346.349 449.674 318.9 449.674 298.356C449.674 274.878 437.072 269.008 421.707 269.008C409.968 269.008 374.923 272.979 362.148 273.324C356.624 273.497 352.135 273.497 346.611 273.324ZM4.62013 485.24L5.65594 498.187C12.0435 498.36 19.4668 498.533 25.8543 498.533C46.9158 498.705 69.531 494.907 86.4493 490.246L86.104 477.471C66.2509 484.031 44.4989 486.276 25.8543 486.276C18.431 486.276 11.0076 485.93 4.62013 485.24ZM65.9057 457.1L50.7138 455.546C50.1959 467.631 46.3979 482.823 42.5999 493.699C35.5219 514.07 19.4668 544.799 4.10223 562.753L17.3951 569.658C31.7239 550.323 47.6063 518.904 55.8928 494.044C60.0361 481.787 63.6614 465.559 65.9057 457.1ZM106.648 510.444H93.0094C93.7 529.434 95.599 560.336 95.599 573.456C95.599 582.779 90.7652 590.375 76.4364 590.375C62.9709 590.375 56.2381 584.85 56.2381 576.909C56.2381 568.968 64.8699 563.098 77.6449 563.098C103.022 563.098 122.875 578.463 136.168 590.547L143.419 578.808C129.263 566.551 106.993 552.05 77.9902 552.05C58.655 552.05 43.6357 562.062 43.6357 577.945C43.6357 595.208 59.0003 602.804 77.9902 602.804C99.3969 602.804 108.201 591.583 108.201 577.772C108.201 566.378 106.648 540.138 106.302 528.916C106.13 522.702 106.13 517.523 106.648 510.444ZM141.175 514.933L148.943 503.539C140.657 497.324 121.149 486.103 108.547 480.751L101.641 491.109C113.035 496.461 131.852 506.992 141.175 514.933ZM230.6 590.202V602.977H328.139V590.202H230.6ZM237.333 505.611V518.04H324.513V505.611H237.333ZM274.449 450.367V596.417H287.569V450.367H274.449ZM170.177 481.442V493.354H227.492V481.442H170.177ZM197.454 533.232V607.983H210.229V517.868L197.454 533.232ZM197.454 449.159V487.311H210.229V449.159H197.454ZM209.193 521.32L201.77 527.881C208.848 534.096 225.766 550.496 232.154 557.919L240.095 547.388C235.088 543.073 215.063 525.464 209.193 521.32ZM222.659 481.442V484.204C212.3 510.444 187.614 536.685 164.135 550.496C166.379 552.74 169.487 558.782 170.868 562.062C195.555 546.18 221.968 517.523 235.088 485.758L227.665 480.924L225.248 481.442H222.659ZM350.063 588.994L351.79 601.769C382.346 600.733 429.13 598.661 472.635 596.417L473.152 584.505C428.267 586.577 380.102 588.303 350.063 588.994ZM348.51 535.649V547.906H491.624V535.649H348.51ZM378.03 502.676V514.76H460.55V502.676H378.03ZM395.812 543.418C390.633 558.61 380.447 580.016 372.333 593.482L383.9 597.28C392.359 584.332 402.372 564.134 410.313 547.561L395.812 543.418ZM436.899 561.717C452.264 575.528 469.354 595.381 477.123 608.329L488.862 601.251C480.748 588.13 463.83 569.486 447.948 555.848L436.899 561.717ZM418.945 461.761C435 484.204 465.384 507.337 492.315 520.285C494.559 516.487 497.667 511.826 500.774 508.718C473.325 497.497 443.114 474.882 424.815 449.332H411.522C398.056 471.429 369.226 496.461 339.533 510.617C342.295 513.379 345.575 518.04 347.129 521.148C376.477 506.474 404.789 482.823 418.945 461.761Z"/>
</mask>
<path d="M211.983 2.36739V139.44H224.067V2.36739H211.983ZM175.039 39.3113V49.3242H265.5V39.3113H175.039ZM178.837 109.747V119.759H262.22V109.747H178.837ZM184.016 86.0955V96.1084H257.386V86.0955H184.016ZM144.828 15.315V26.1911H169.86V15.315H144.828ZM151.388 63.8256V73.8384H173.485V63.8256H151.388ZM167.098 15.315V16.8688C161.401 31.0249 149.489 59.337 139.994 79.3627L150.87 81.9523C160.192 61.7539 171.931 34.9955 179.009 17.0414L170.723 14.7971L168.651 15.315H167.098ZM170.032 63.8256V65.8972C166.58 106.984 154.668 136.16 136.023 149.798C138.613 152.215 141.893 156.531 143.447 159.293C164.853 142.547 177.11 112.681 181.254 64.8614L174.348 63.4803L172.277 63.8256H170.032ZM152.078 87.8219L142.066 90.9293C153.459 144.446 176.247 156.703 217.507 156.703H261.529C262.22 153.251 264.119 147.726 266.018 144.792C258.594 144.964 223.549 144.964 218.025 144.964C182.807 144.964 161.401 134.606 152.078 87.8219ZM186.778 16.1782V26.1911H243.92V62.7898H186.778V72.9752H255.142V16.1782H186.778ZM135.851 2.02211C128.427 27.3995 115.998 52.259 101.841 68.6594C103.913 71.9394 107.193 79.0175 108.402 81.9523C124.284 62.7897 138.613 33.787 147.59 5.30218L135.851 2.02211ZM123.594 45.6989V159.466H135.16V34.4776L134.987 34.3049L123.594 45.6989ZM307.968 64.3435V74.1837H436.754V64.3435H307.968ZM320.225 42.0735V51.5685H407.406V87.6492H318.844V97.1442H419.663V42.0735H320.225ZM360.622 29.8164V144.964C360.622 147.899 359.759 148.762 356.651 148.762C353.716 148.935 343.186 149.107 332.482 148.762C334.381 152.042 336.108 157.049 336.798 160.156C350.954 160.156 360.277 159.983 365.801 158.084C371.153 156.358 373.224 153.078 373.224 144.964V29.8164H360.622ZM312.284 106.466C321.261 111.818 332.31 119.759 337.661 125.111L345.603 117.17C339.733 111.991 328.684 104.395 319.707 99.3884L312.284 106.466ZM417.592 100.252C409.478 107.157 395.494 116.652 385.309 122.176L392.732 128.736C403.263 123.73 416.728 115.616 427.086 107.848L417.592 100.252ZM375.986 93.6915L365.974 96.1084C376.159 126.147 396.357 148.244 425.36 158.084C427.086 154.804 430.539 150.143 433.301 147.726C405.162 139.612 385.136 119.759 375.986 93.6915ZM303.134 142.547L309.349 153.078C321.779 148.072 337.316 141.684 352.163 135.297L349.918 125.802C332.655 132.189 314.874 138.749 303.134 142.547ZM355.615 1.15894V23.0836H368.908V1.15894H355.615ZM297.61 17.0414V28.4353H434.682V17.0414H297.61ZM291.395 17.0414V67.9688C291.395 93.3462 290.187 128.564 276.376 153.596C279.311 154.804 284.662 158.257 286.907 160.501C301.408 134.261 303.652 95.0726 303.652 67.9688V17.0414H291.395ZM1.5127 256.406L3.06641 271.598C21.711 267.627 65.733 263.311 84.205 261.412C68.4952 270.735 52.0948 292.832 52.0948 319.59C52.0948 358.261 88.3483 375.179 120.286 376.387L125.292 362.231C97.3253 361.196 65.733 350.32 65.733 316.656C65.733 296.285 80.7523 269.871 105.439 261.93C114.244 259.513 129.263 259.168 139.276 259.341L139.103 245.53C127.536 245.875 111.481 246.911 92.4915 248.465C60.7266 251.227 28.0985 254.334 17.0499 255.543C13.5972 255.888 8.07284 256.233 1.5127 256.406ZM114.244 280.402L105.612 284.2C110.791 291.451 115.625 300.255 119.595 308.542L128.572 304.571C124.774 296.803 118.214 286.099 114.244 280.402ZM133.061 273.152L124.602 277.122C129.953 284.373 135.132 293.005 139.276 301.291L148.08 296.975C144.109 289.379 137.377 278.849 133.061 273.152ZM172.422 298.529V308.369H322.097V298.529H172.422ZM169.66 369.827V380.013H324.513V369.827H169.66ZM204.704 326.496H288.433V341.688H204.704V326.496ZM192.102 317.346V350.837H301.726V317.346H192.102ZM207.985 353.6C211.955 359.297 215.753 366.893 217.134 372.244L228.873 368.101C227.32 362.922 223.176 355.499 219.033 350.147L207.985 353.6ZM274.622 349.456C272.205 354.808 267.371 363.095 263.918 368.274L274.104 372.244C277.729 367.238 282.045 360.505 286.016 353.6L274.622 349.456ZM197.454 267.8H294.647V280.23H197.454V267.8ZM197.454 246.738H294.647V258.995H197.454V246.738ZM185.542 237.416V289.552H307.077V237.416H185.542ZM221.277 224.814V286.272H232.499V224.814H221.277ZM257.876 224.814V286.272H269.443V224.814H257.876ZM408.759 235.344L392.877 233.791C392.877 247.084 390.46 262.621 387.353 276.259C382.692 297.493 368.881 343.587 349.2 369.827L363.184 375.524C382.692 343.932 395.121 300.946 400.991 276.777C403.235 266.074 405.652 251.917 406.688 245.703C407.378 242.25 408.069 238.624 408.759 235.344ZM468.319 253.816L455.716 259.513C467.801 273.669 481.266 304.226 486.445 322.007L499.738 315.62C494.041 299.565 479.022 267.8 468.319 253.816ZM346.611 273.324L348.164 288.171C352.48 287.48 359.731 286.617 363.702 286.099C374.232 285.063 406.515 281.265 418.082 281.265C429.13 281.265 436.381 284.2 436.381 299.91C436.381 318.555 433.792 341.17 428.267 352.736C424.642 360.332 419.463 361.714 413.075 361.714C408.242 361.714 399.265 360.332 392.014 358.088L394.258 372.59C399.782 373.798 407.896 375.006 414.629 375.006C425.678 375.006 434.309 372.244 439.834 360.678C446.912 346.349 449.674 318.9 449.674 298.356C449.674 274.878 437.072 269.008 421.707 269.008C409.968 269.008 374.923 272.979 362.148 273.324C356.624 273.497 352.135 273.497 346.611 273.324ZM4.62013 485.24L5.65594 498.187C12.0435 498.36 19.4668 498.533 25.8543 498.533C46.9158 498.705 69.531 494.907 86.4493 490.246L86.104 477.471C66.2509 484.031 44.4989 486.276 25.8543 486.276C18.431 486.276 11.0076 485.93 4.62013 485.24ZM65.9057 457.1L50.7138 455.546C50.1959 467.631 46.3979 482.823 42.5999 493.699C35.5219 514.07 19.4668 544.799 4.10223 562.753L17.3951 569.658C31.7239 550.323 47.6063 518.904 55.8928 494.044C60.0361 481.787 63.6614 465.559 65.9057 457.1ZM106.648 510.444H93.0094C93.7 529.434 95.599 560.336 95.599 573.456C95.599 582.779 90.7652 590.375 76.4364 590.375C62.9709 590.375 56.2381 584.85 56.2381 576.909C56.2381 568.968 64.8699 563.098 77.6449 563.098C103.022 563.098 122.875 578.463 136.168 590.547L143.419 578.808C129.263 566.551 106.993 552.05 77.9902 552.05C58.655 552.05 43.6357 562.062 43.6357 577.945C43.6357 595.208 59.0003 602.804 77.9902 602.804C99.3969 602.804 108.201 591.583 108.201 577.772C108.201 566.378 106.648 540.138 106.302 528.916C106.13 522.702 106.13 517.523 106.648 510.444ZM141.175 514.933L148.943 503.539C140.657 497.324 121.149 486.103 108.547 480.751L101.641 491.109C113.035 496.461 131.852 506.992 141.175 514.933ZM230.6 590.202V602.977H328.139V590.202H230.6ZM237.333 505.611V518.04H324.513V505.611H237.333ZM274.449 450.367V596.417H287.569V450.367H274.449ZM170.177 481.442V493.354H227.492V481.442H170.177ZM197.454 533.232V607.983H210.229V517.868L197.454 533.232ZM197.454 449.159V487.311H210.229V449.159H197.454ZM209.193 521.32L201.77 527.881C208.848 534.096 225.766 550.496 232.154 557.919L240.095 547.388C235.088 543.073 215.063 525.464 209.193 521.32ZM222.659 481.442V484.204C212.3 510.444 187.614 536.685 164.135 550.496C166.379 552.74 169.487 558.782 170.868 562.062C195.555 546.18 221.968 517.523 235.088 485.758L227.665 480.924L225.248 481.442H222.659ZM350.063 588.994L351.79 601.769C382.346 600.733 429.13 598.661 472.635 596.417L473.152 584.505C428.267 586.577 380.102 588.303 350.063 588.994ZM348.51 535.649V547.906H491.624V535.649H348.51ZM378.03 502.676V514.76H460.55V502.676H378.03ZM395.812 543.418C390.633 558.61 380.447 580.016 372.333 593.482L383.9 597.28C392.359 584.332 402.372 564.134 410.313 547.561L395.812 543.418ZM436.899 561.717C452.264 575.528 469.354 595.381 477.123 608.329L488.862 601.251C480.748 588.13 463.83 569.486 447.948 555.848L436.899 561.717ZM418.945 461.761C435 484.204 465.384 507.337 492.315 520.285C494.559 516.487 497.667 511.826 500.774 508.718C473.325 497.497 443.114 474.882 424.815 449.332H411.522C398.056 471.429 369.226 496.461 339.533 510.617C342.295 513.379 345.575 518.04 347.129 521.148C376.477 506.474 404.789 482.823 418.945 461.761Z" stroke="black" stroke-width="2" mask="url(#path-1-outside-1_1125_8416)"/>
</g>
</svg>
